<svg width="83" height="122" viewBox="0 0 83 122" fill="none" xmlns="http://www.w3.org/2000/svg">
<path d="M16.6002 2.76651V107.9C16.6002 109.421 15.3554 110.667 13.8337 110.667H8.29954C3.73462 110.667 0 106.932 0 102.367V8.29954C0 3.73462 3.73462 0 8.29954 0H13.8337C15.3554 0 16.6002 1.24487 16.6002 2.76651Z" fill="#997E6C"/>
<path d="M0 19.3667H16.6002V24.8997H0V19.3667Z" fill="#FFDE59"/>
<path d="M0 88.5332H16.6002V94.0674H0V88.5332Z" fill="#FFDE59"/>
<path d="M30.4328 105.133C13.8858 105.394 16.8596 102.425 16.6002 118.967C16.5423 120.962 18.8491 122.384 20.6035 121.441L24.8998 119.294L29.196 121.441C30.9481 122.384 33.2607 120.962 33.2004 118.967V107.9C33.2004 106.374 31.9602 105.133 30.4328 105.133Z" fill="#E26667"/>
<path d="M74.7006 0H13.8338C12.3064 0 11.0662 1.23908 11.0662 2.76651V107.9C11.0662 109.427 12.3064 110.667 13.8338 110.667H74.7006C79.2759 110.667 83.0001 106.943 83.0001 102.367V8.29954C83.0001 3.7242 79.2759 0 74.7006 0Z" fill="#B18F78"/>
<path d="M58.1002 44.2666H49.7995V33.2006C49.7856 29.5922 44.2804 29.5736 44.2665 33.2006V44.2666H35.967C34.4372 44.2666 33.2004 45.5068 33.2004 47.0331C33.2004 48.5605 34.4372 49.8008 35.967 49.8008H44.2665V77.4671C44.2781 81.0662 49.7856 81.0998 49.7995 77.4671V49.8008H58.1002C61.7109 49.7869 61.7248 44.2805 58.1002 44.2666Z" fill="#FFDE59"/>
</svg>
