<svg width="475" height="69" viewBox="0 0 475 69" fill="none" xmlns="http://www.w3.org/2000/svg">
<g filter="url(#filter0_d)">
<path d="M36.852 14.728V40H30.696V24.844L25.044 40H20.076L14.388 24.808V40H8.232V14.728H15.504L22.596 32.224L29.616 14.728H36.852ZM50.4229 40.288C48.4549 40.288 46.6789 39.868 45.0949 39.028C43.5349 38.188 42.2989 36.988 41.3869 35.428C40.4989 33.868 40.0549 32.044 40.0549 29.956C40.0549 27.892 40.5109 26.08 41.4229 24.52C42.3349 22.936 43.5829 21.724 45.1669 20.884C46.7509 20.044 48.5269 19.624 50.4949 19.624C52.4629 19.624 54.2389 20.044 55.8229 20.884C57.4069 21.724 58.6549 22.936 59.5669 24.52C60.4789 26.08 60.9349 27.892 60.9349 29.956C60.9349 32.02 60.4669 33.844 59.5309 35.428C58.6189 36.988 57.3589 38.188 55.7509 39.028C54.1669 39.868 52.3909 40.288 50.4229 40.288ZM50.4229 34.96C51.5989 34.96 52.5949 34.528 53.4109 33.664C54.2509 32.8 54.6709 31.564 54.6709 29.956C54.6709 28.348 54.2629 27.112 53.4469 26.248C52.6549 25.384 51.6709 24.952 50.4949 24.952C49.2949 24.952 48.2989 25.384 47.5069 26.248C46.7149 27.088 46.3189 28.324 46.3189 29.956C46.3189 31.564 46.7029 32.8 47.4709 33.664C48.2629 34.528 49.2469 34.96 50.4229 34.96ZM84.0368 19.912V40H77.8808V37.264C77.2568 38.152 76.4048 38.872 75.3248 39.424C74.2688 39.952 73.0928 40.216 71.7968 40.216C70.2608 40.216 68.9048 39.88 67.7288 39.208C66.5528 38.512 65.6408 37.516 64.9928 36.22C64.3448 34.924 64.0208 33.4 64.0208 31.648V19.912H70.1408V30.82C70.1408 32.164 70.4888 33.208 71.1848 33.952C71.8808 34.696 72.8168 35.068 73.9928 35.068C75.1928 35.068 76.1408 34.696 76.8368 33.952C77.5328 33.208 77.8808 32.164 77.8808 30.82V19.912H84.0368ZM100.699 19.696C103.051 19.696 104.923 20.464 106.315 22C107.731 23.512 108.439 25.6 108.439 28.264V40H102.319V29.092C102.319 27.748 101.971 26.704 101.275 25.96C100.579 25.216 99.6426 24.844 98.4666 24.844C97.2906 24.844 96.3546 25.216 95.6586 25.96C94.9626 26.704 94.6146 27.748 94.6146 29.092V40H88.4586V19.912H94.6146V22.576C95.2386 21.688 96.0786 20.992 97.1346 20.488C98.1906 19.96 99.3786 19.696 100.699 19.696ZM123.912 34.78V40H120.78C118.548 40 116.808 39.46 115.56 38.38C114.312 37.276 113.688 35.488 113.688 33.016V25.024H111.24V19.912H113.688V15.016H119.844V19.912H123.876V25.024H119.844V33.088C119.844 33.688 119.988 34.12 120.276 34.384C120.564 34.648 121.044 34.78 121.716 34.78H123.912ZM126.117 29.92C126.117 27.856 126.501 26.044 127.269 24.484C128.061 22.924 129.129 21.724 130.473 20.884C131.817 20.044 133.317 19.624 134.973 19.624C136.389 19.624 137.625 19.912 138.681 20.488C139.761 21.064 140.589 21.82 141.165 22.756V19.912H147.321V40H141.165V37.156C140.565 38.092 139.725 38.848 138.645 39.424C137.589 40 136.353 40.288 134.937 40.288C133.305 40.288 131.817 39.868 130.473 39.028C129.129 38.164 128.061 36.952 127.269 35.392C126.501 33.808 126.117 31.984 126.117 29.92ZM141.165 29.956C141.165 28.42 140.733 27.208 139.869 26.32C139.029 25.432 137.997 24.988 136.773 24.988C135.549 24.988 134.505 25.432 133.641 26.32C132.801 27.184 132.381 28.384 132.381 29.92C132.381 31.456 132.801 32.68 133.641 33.592C134.505 34.48 135.549 34.924 136.773 34.924C137.997 34.924 139.029 34.48 139.869 33.592C140.733 32.704 141.165 31.492 141.165 29.956ZM154.871 17.824C153.791 17.824 152.903 17.512 152.207 16.888C151.535 16.24 151.199 15.448 151.199 14.512C151.199 13.552 151.535 12.76 152.207 12.136C152.903 11.488 153.791 11.164 154.871 11.164C155.927 11.164 156.791 11.488 157.463 12.136C158.159 12.76 158.507 13.552 158.507 14.512C158.507 15.448 158.159 16.24 157.463 16.888C156.791 17.512 155.927 17.824 154.871 17.824ZM157.931 19.912V40H151.775V19.912H157.931ZM174.632 19.696C176.984 19.696 178.856 20.464 180.248 22C181.664 23.512 182.372 25.6 182.372 28.264V40H176.252V29.092C176.252 27.748 175.904 26.704 175.208 25.96C174.512 25.216 173.576 24.844 172.4 24.844C171.224 24.844 170.288 25.216 169.592 25.96C168.896 26.704 168.548 27.748 168.548 29.092V40H162.392V19.912H168.548V22.576C169.172 21.688 170.012 20.992 171.068 20.488C172.124 19.96 173.312 19.696 174.632 19.696ZM218.003 14.728L209.039 40H201.335L192.371 14.728H198.923L205.187 33.808L211.487 14.728H218.003ZM219.352 29.92C219.352 27.856 219.736 26.044 220.504 24.484C221.296 22.924 222.364 21.724 223.708 20.884C225.052 20.044 226.552 19.624 228.208 19.624C229.624 19.624 230.86 19.912 231.916 20.488C232.996 21.064 233.824 21.82 234.4 22.756V19.912H240.556V40H234.4V37.156C233.8 38.092 232.96 38.848 231.88 39.424C230.824 40 229.588 40.288 228.172 40.288C226.54 40.288 225.052 39.868 223.708 39.028C222.364 38.164 221.296 36.952 220.504 35.392C219.736 33.808 219.352 31.984 219.352 29.92ZM234.4 29.956C234.4 28.42 233.968 27.208 233.104 26.32C232.264 25.432 231.232 24.988 230.008 24.988C228.784 24.988 227.74 25.432 226.876 26.32C226.036 27.184 225.616 28.384 225.616 29.92C225.616 31.456 226.036 32.68 226.876 33.592C227.74 34.48 228.784 34.924 230.008 34.924C231.232 34.924 232.264 34.48 233.104 33.592C233.968 32.704 234.4 31.492 234.4 29.956ZM251.165 13.36V40H245.009V13.36H251.165ZM261.783 13.36V40H255.627V13.36H261.783ZM285.18 29.632C285.18 30.208 285.144 30.808 285.072 31.432H271.14C271.236 32.68 271.632 33.64 272.328 34.312C273.048 34.96 273.924 35.284 274.956 35.284C276.492 35.284 277.56 34.636 278.16 33.34H284.712C284.376 34.66 283.764 35.848 282.876 36.904C282.012 37.96 280.92 38.788 279.6 39.388C278.28 39.988 276.804 40.288 275.172 40.288C273.204 40.288 271.452 39.868 269.916 39.028C268.38 38.188 267.18 36.988 266.316 35.428C265.452 33.868 265.02 32.044 265.02 29.956C265.02 27.868 265.44 26.044 266.28 24.484C267.144 22.924 268.344 21.724 269.88 20.884C271.416 20.044 273.18 19.624 275.172 19.624C277.116 19.624 278.844 20.032 280.356 20.848C281.868 21.664 283.044 22.828 283.884 24.34C284.748 25.852 285.18 27.616 285.18 29.632ZM278.88 28.012C278.88 26.956 278.52 26.116 277.8 25.492C277.08 24.868 276.18 24.556 275.1 24.556C274.068 24.556 273.192 24.856 272.472 25.456C271.776 26.056 271.344 26.908 271.176 28.012H278.88ZM308.947 19.912L296.347 49.54H289.723L294.331 39.316L286.159 19.912H293.035L297.679 32.476L302.287 19.912H308.947ZM324.958 19.66V24.772H333.202V29.524H324.958V35.068H334.282V40H318.802V14.728H334.282V19.66H324.958ZM344.435 13.36V40H338.279V13.36H344.435ZM367.832 29.632C367.832 30.208 367.796 30.808 367.724 31.432H353.792C353.888 32.68 354.284 33.64 354.98 34.312C355.7 34.96 356.576 35.284 357.608 35.284C359.144 35.284 360.212 34.636 360.812 33.34H367.364C367.028 34.66 366.416 35.848 365.528 36.904C364.664 37.96 363.572 38.788 362.252 39.388C360.932 39.988 359.456 40.288 357.824 40.288C355.856 40.288 354.104 39.868 352.568 39.028C351.032 38.188 349.832 36.988 348.968 35.428C348.104 33.868 347.672 32.044 347.672 29.956C347.672 27.868 348.092 26.044 348.932 24.484C349.796 22.924 350.996 21.724 352.532 20.884C354.068 20.044 355.832 19.624 357.824 19.624C359.768 19.624 361.496 20.032 363.008 20.848C364.52 21.664 365.696 22.828 366.536 24.34C367.4 25.852 367.832 27.616 367.832 29.632ZM361.532 28.012C361.532 26.956 361.172 26.116 360.452 25.492C359.732 24.868 358.832 24.556 357.752 24.556C356.72 24.556 355.844 24.856 355.124 25.456C354.428 26.056 353.996 26.908 353.828 28.012H361.532ZM369.856 29.956C369.856 27.868 370.276 26.044 371.116 24.484C371.98 22.924 373.168 21.724 374.68 20.884C376.216 20.044 377.968 19.624 379.936 19.624C382.456 19.624 384.556 20.284 386.236 21.604C387.94 22.924 389.056 24.784 389.584 27.184H383.032C382.48 25.648 381.412 24.88 379.828 24.88C378.7 24.88 377.8 25.324 377.128 26.212C376.456 27.076 376.12 28.324 376.12 29.956C376.12 31.588 376.456 32.848 377.128 33.736C377.8 34.6 378.7 35.032 379.828 35.032C381.412 35.032 382.48 34.264 383.032 32.728H389.584C389.056 35.08 387.94 36.928 386.236 38.272C384.532 39.616 382.432 40.288 379.936 40.288C377.968 40.288 376.216 39.868 374.68 39.028C373.168 38.188 371.98 36.988 371.116 35.428C370.276 33.868 369.856 32.044 369.856 29.956ZM404.073 34.78V40H400.941C398.709 40 396.969 39.46 395.721 38.38C394.473 37.276 393.849 35.488 393.849 33.016V25.024H391.401V19.912H393.849V15.016H400.005V19.912H404.037V25.024H400.005V33.088C400.005 33.688 400.149 34.12 400.437 34.384C400.725 34.648 401.205 34.78 401.877 34.78H404.073ZM413.658 23.26C414.378 22.156 415.278 21.292 416.358 20.668C417.438 20.02 418.638 19.696 419.958 19.696V26.212H418.266C416.73 26.212 415.578 26.548 414.81 27.22C414.042 27.868 413.658 29.02 413.658 30.676V40H407.502V19.912H413.658V23.26ZM425.996 17.824C424.916 17.824 424.028 17.512 423.332 16.888C422.66 16.24 422.324 15.448 422.324 14.512C422.324 13.552 422.66 12.76 423.332 12.136C424.028 11.488 424.916 11.164 425.996 11.164C427.052 11.164 427.916 11.488 428.588 12.136C429.284 12.76 429.632 13.552 429.632 14.512C429.632 15.448 429.284 16.24 428.588 16.888C427.916 17.512 427.052 17.824 425.996 17.824ZM429.056 19.912V40H422.9V19.912H429.056ZM432.293 29.956C432.293 27.868 432.713 26.044 433.553 24.484C434.417 22.924 435.605 21.724 437.117 20.884C438.653 20.044 440.405 19.624 442.373 19.624C444.893 19.624 446.993 20.284 448.673 21.604C450.377 22.924 451.493 24.784 452.021 27.184H445.469C444.917 25.648 443.849 24.88 442.265 24.88C441.137 24.88 440.237 25.324 439.565 26.212C438.893 27.076 438.557 28.324 438.557 29.956C438.557 31.588 438.893 32.848 439.565 33.736C440.237 34.6 441.137 35.032 442.265 35.032C443.849 35.032 444.917 34.264 445.469 32.728H452.021C451.493 35.08 450.377 36.928 448.673 38.272C446.969 39.616 444.869 40.288 442.373 40.288C440.405 40.288 438.653 39.868 437.117 39.028C435.605 38.188 434.417 36.988 433.553 35.428C432.713 33.868 432.293 32.044 432.293 29.956Z" fill="#255AA3"/>
</g>
<defs>
<filter id="filter0_d" x="0.231934" y="0.164062" width="473.789" height="68.376" filterUnits="userSpaceOnUse" color-interpolation-filters="sRGB">
<feFlood flood-opacity="0" result="BackgroundImageFix"/>
<feColorMatrix in="SourceAlpha" type="matrix" values="0 0 0 0 0 0 0 0 0 0 0 0 0 0 0 0 0 0 127 0" result="hardAlpha"/>
<feOffset dx="7" dy="4"/>
<feGaussianBlur stdDeviation="7.5"/>
<feComposite in2="hardAlpha" operator="out"/>
<feColorMatrix type="matrix" values="0 0 0 0 0 0 0 0 0 0 0 0 0 0 0 0 0 0 0.25 0"/>
<feBlend mode="normal" in2="BackgroundImageFix" result="effect1_dropShadow"/>
<feBlend mode="normal" in="SourceGraphic" in2="effect1_dropShadow" result="shape"/>
</filter>
</defs>
</svg>
