<svg width="154" height="113" viewBox="0 0 154 113" fill="none" xmlns="http://www.w3.org/2000/svg">
<path d="M144.309 112.866H9.66366C4.40355 112.866 0.000976562 108.702 0.000976562 103.327V10.1708C0.000976562 9.85465 0.0173819 9.53997 0.0487009 9.22529C0.0800203 8.91061 0.127744 8.59742 0.188891 8.28721C0.251529 7.977 0.329082 7.67127 0.421547 7.36851C0.514013 7.06576 0.619901 6.76898 0.742195 6.47667C0.862997 6.18585 0.998713 5.8995 1.14785 5.62061C1.29699 5.34321 1.45955 5.07178 1.63553 4.8093C1.81152 4.54681 1.99943 4.29328 2.20077 4.04869C2.40062 3.8041 2.61388 3.56996 2.83759 3.34625C3.0613 3.12403 3.29545 2.91076 3.54003 2.71092C3.78462 2.50958 4.03816 2.32167 4.30064 2.14717C4.56312 1.97119 4.83456 1.80863 5.11345 1.65949C5.39233 1.51035 5.67719 1.37464 5.9695 1.25383C6.26181 1.13303 6.5586 1.02714 6.86135 0.934678C7.1641 0.842212 7.47133 0.766151 7.78004 0.703513C8.09025 0.642366 8.40344 0.596134 8.71812 0.564814C9.03281 0.533495 9.34749 0.51709 9.66366 0.51709H144.309C149.569 0.51709 153.973 4.84807 153.973 10.1813V103.206C153.852 108.713 149.569 112.871 144.309 112.871V112.866Z" fill="#F2F2F2"/>
<path d="M19.2502 112.867L76.8565 70.7084L77.2219 68.264L17.8066 25.582L17.6873 110.788L19.2502 112.867Z" fill="#221F1F" fill-opacity="0.098"/>
<path d="M9.66366 112.867C4.33196 112.867 0.000976562 108.703 0.000976562 103.328V10.0461C0.000976562 4.66672 4.33196 3.69434 9.66366 3.69434C14.9969 3.69434 19.3278 4.80094 19.3278 10.0461V112.861L9.66366 112.867Z" fill="#D44C3D"/>
<path d="M9.66368 5.15681C16.5121 5.15681 17.8603 7.2358 17.8603 10.0456V111.513H9.66368C5.14031 111.513 1.46852 107.846 1.46852 103.318V10.0456C1.34772 7.15824 2.81524 5.15681 9.66368 5.15681ZM9.66368 3.80859C4.33198 3.81307 0.00099673 4.91073 0.00099673 10.0456V103.197C-0.00347714 103.515 0.00696256 103.833 0.0352986 104.149C0.0621437 104.465 0.105394 104.78 0.163558 105.092C0.221722 105.405 0.296291 105.713 0.385774 106.018C0.475257 106.322 0.579654 106.622 0.698965 106.917C0.818276 107.211 0.9525 107.499 1.10164 107.781C1.24929 108.061 1.41185 108.334 1.58634 108.599C1.76232 108.863 1.95024 109.118 2.15157 109.364C2.35291 109.61 2.56618 109.846 2.78989 110.071C3.01509 110.295 3.25072 110.508 3.4968 110.71C3.74288 110.911 3.99791 111.099 4.26338 111.275C4.52735 111.451 4.80027 111.612 5.08215 111.761C5.36253 111.909 5.65036 112.043 5.94417 112.162C6.23946 112.282 6.53923 112.386 6.84347 112.475C7.14921 112.565 7.45643 112.639 7.76962 112.698C8.08132 112.757 8.396 112.799 8.71218 112.827C9.02984 112.854 9.34602 112.866 9.66368 112.86H19.3279V10.0456C19.2503 4.78993 15.0446 3.81307 9.66368 3.81307V3.80859ZM144.309 5.15681C150.546 5.15681 152.506 6.37825 152.506 9.80545V103.448C152.506 107.971 148.838 111.643 144.309 111.643H136.114V9.80545C135.993 6.25894 138.072 5.15681 144.309 5.15681ZM144.309 3.80859C138.929 3.80859 134.646 4.54086 134.646 9.80098V112.981H144.309C149.69 112.981 153.973 108.65 153.973 103.318V9.68018C153.852 4.42006 149.569 3.80859 144.309 3.80859Z" fill="#D44C3D"/>
<path d="M144.309 112.867H134.646V9.80586C134.646 4.42494 138.977 3.81348 144.309 3.81348C149.642 3.81348 153.973 4.54575 153.973 9.80586V103.448C153.966 103.76 153.945 104.07 153.907 104.381C153.87 104.689 153.819 104.997 153.752 105.301C153.685 105.605 153.605 105.906 153.508 106.203C153.412 106.5 153.302 106.791 153.178 107.077C153.054 107.363 152.916 107.642 152.765 107.914C152.613 108.187 152.449 108.452 152.271 108.709C152.095 108.965 151.906 109.213 151.705 109.45C151.503 109.688 151.292 109.917 151.068 110.134C150.844 110.352 150.612 110.558 150.368 110.753C150.125 110.947 149.873 111.131 149.611 111.301C149.35 111.471 149.081 111.629 148.805 111.773C148.53 111.917 148.246 112.048 147.957 112.164C147.669 112.282 147.374 112.383 147.075 112.473C146.776 112.561 146.473 112.634 146.167 112.694C145.861 112.752 145.553 112.796 145.243 112.825C144.932 112.853 144.621 112.868 144.309 112.867Z" fill="#D44C3D"/>
<path d="M103.094 112.866L0.856934 14.1367L6.23785 16.3365L77.4634 67.5745L153.968 11.394V103.448C153.967 103.763 153.951 104.076 153.918 104.389C153.885 104.703 153.839 105.013 153.775 105.321C153.712 105.63 153.634 105.934 153.542 106.234C153.449 106.535 153.342 106.831 153.22 107.122C153.098 107.411 152.962 107.694 152.813 107.972C152.662 108.248 152.499 108.516 152.322 108.777C152.146 109.038 151.958 109.289 151.757 109.532C151.555 109.773 151.342 110.004 151.118 110.225C150.895 110.447 150.661 110.656 150.416 110.855C150.171 111.051 149.918 111.238 149.655 111.411C149.391 111.584 149.121 111.743 148.843 111.89C148.564 112.036 148.279 112.168 147.987 112.286C147.696 112.404 147.399 112.507 147.096 112.596C146.795 112.686 146.489 112.759 146.18 112.819C145.872 112.877 145.56 112.92 145.247 112.948C144.934 112.977 144.619 112.989 144.304 112.986L103.094 112.866Z" fill="#221F1F" fill-opacity="0.0784"/>
<path d="M76.8093 70.8288L4.15944 18.1218C-0.171543 14.9451 -1.34675 8.83341 1.83437 4.55015C5.01549 0.266889 11.1227 -0.709969 15.5313 2.47116L76.9241 47.1068L138.684 1.86416C143.015 -1.311 148.958 -0.33414 152.135 4.06396C155.311 8.39494 154.334 14.3396 149.936 17.5148L76.8093 70.8288Z" fill="#D44C3D"/>
<path d="M144.31 1.49066C146.88 1.49066 149.445 2.7121 151.038 4.91637C153.609 8.58369 152.868 13.7245 149.209 16.4671L76.81 69.1205L5.01621 17.0249C1.34889 14.33 0.367561 9.06988 2.88949 5.47564C4.35702 3.27585 6.93115 1.92763 9.73793 1.92763C11.5664 1.92763 13.2844 2.41979 14.6267 3.51596L75.8913 48.0323L76.7474 48.523L77.6034 48.0323L139.301 2.82843C140.889 1.97088 142.477 1.48022 144.316 1.48022L144.31 1.49066ZM144.31 0.023135C142.352 0.023135 140.268 0.513801 138.68 1.85157L76.9248 47.1032L15.4112 2.34671C13.8228 1.12527 11.7438 0.518275 9.66486 0.518275C6.60901 0.639077 3.55316 1.9858 1.71577 4.56142C-1.34157 8.8924 -0.114157 14.8356 4.16015 18.0122L76.81 70.8296L149.937 17.5066C150.191 17.3202 150.435 17.1219 150.669 16.9131C150.905 16.7028 151.129 16.4821 151.342 16.2509C151.555 16.0197 151.758 15.7781 151.947 15.5261C152.137 15.2755 152.314 15.016 152.48 14.7476C152.644 14.4791 152.796 14.2032 152.933 13.9199C153.072 13.6365 153.196 13.3487 153.305 13.0534C153.415 12.7581 153.51 12.4583 153.591 12.1541C153.672 11.8498 153.737 11.5411 153.788 11.2309C153.839 10.9207 153.874 10.6075 153.895 10.2928C153.916 9.97962 153.921 9.66494 153.91 9.35026C153.9 9.03558 153.874 8.72239 153.834 8.40919C153.794 8.0975 153.739 7.78729 153.667 7.48006C153.597 7.17433 153.512 6.87158 153.412 6.57181C153.312 6.27353 153.197 5.98122 153.069 5.69338C152.939 5.40554 152.798 5.12516 152.642 4.85224C152.486 4.57783 152.317 4.31236 152.135 4.05584C150.177 1.48618 147.247 0.0126953 144.31 0.0126953V0.023135Z" fill="#D44C3D"/>
</svg>
