<svg width="388" height="431" viewBox="0 0 388 431" fill="none" xmlns="http://www.w3.org/2000/svg">
<g filter="url(#filter0_d)">
<path d="M345.109 138.605V38.5273C345.109 21.1172 330.98 7 313.559 7H31.5508C14.1328 7.00391 0 21.1172 0 38.5273V138.605H345.109Z" fill="#255AA3"/>
<path d="M47.7852 33.082L56.4258 50.5703L75.7344 53.375L61.7617 66.9883L65.0586 86.2109L47.7852 77.1367L30.5117 86.2109L33.8086 66.9883L19.832 53.375L39.1445 50.5703L47.7852 33.082Z" fill="#FFF747"/>
<path d="M109.363 33.082L117.992 50.5703L137.316 53.375L123.336 66.9883L126.637 86.2109L109.363 77.1367L92.082 86.2109L95.3828 66.9883L81.4102 53.375L100.723 50.5703L109.363 33.082Z" fill="#FFF747"/>
<path d="M170.938 33.082L179.574 50.5703L198.891 53.375L184.91 66.9883L188.215 86.2109L170.938 77.1367L153.66 86.2109L156.961 66.9883L142.98 53.375L162.297 50.5703L170.938 33.082Z" fill="#FFF747"/>
<path d="M232.512 33.082L241.156 50.5703L260.469 53.375L246.488 66.9883L249.789 86.2109L232.512 77.1367L215.238 86.2109L218.535 66.9883L204.562 53.375L223.875 50.5703L232.512 33.082Z" fill="#FFF747"/>
<path d="M294.09 33.082L302.727 50.5703L322.039 53.375L308.062 66.9883L311.363 86.2109L294.09 77.1367L276.809 86.2109L280.113 66.9883L266.133 53.375L285.445 50.5703L294.09 33.082Z" fill="#FFF747"/>
<path d="M19.832 99.9062H322.039V112.523H19.832V99.9062Z" fill="#89E1FD"/>
<path d="M349.098 215.91L276.281 156.602C272.414 153.449 272.809 149.289 268.25 150.063C267.758 157.293 255.293 167 247.75 165.278L215.008 196.75C209.207 203.864 198.855 241.938 205.977 247.739L273.938 303.098C281.055 308.895 351.48 239.293 351.48 239.293C357.285 232.176 356.215 221.711 349.098 215.91Z" fill="#F9B57C"/>
<path d="M217.566 248.055L209.395 258.07L213.094 253.535L177.59 297.055C174.434 300.93 175.016 306.633 178.891 309.793L208.59 333.984L218.566 342.109C222.449 345.269 228.156 344.691 231.316 340.816L247.309 321.215L268.961 294.672L271.293 291.82C274.453 287.941 273.871 282.238 269.988 279.078L260.012 270.949L230.316 246.758C226.438 243.601 220.73 244.18 217.566 248.055Z" fill="#F9B57C"/>
<path d="M169.984 267.746L156.055 284.82L162.367 277.09L113.313 337.215C107.926 343.828 108.914 353.555 115.527 358.938L166.164 400.184L183.164 414.035C189.777 419.418 199.508 418.43 204.899 411.82L220.684 392.473L257.598 347.223L261.574 342.348C266.969 335.738 265.973 326.016 259.363 320.633L242.356 306.781L191.723 265.535C185.109 260.152 175.383 261.137 169.984 267.746Z" fill="#255AA3"/>
<path d="M296.316 183.27C293.887 191.777 284.137 196.449 274.551 193.715C264.957 190.977 259.156 181.859 261.59 173.356L283.797 95.7071C286.234 87.1993 295.977 82.5196 305.566 85.2579C315.152 88.0001 296.316 183.27 296.316 183.27Z" fill="#F9B57C"/>
<path d="M256.023 216.848C255.731 225.684 245.555 232.527 233.293 232.121C221.031 231.715 211.328 224.219 211.625 215.379L214.305 134.66C214.598 125.82 224.77 118.981 237.035 119.387C249.293 119.793 256.023 216.848 256.023 216.848Z" fill="#F9B57C"/>
<path d="M328.684 172.754C331.617 165.144 327.594 156.504 319.687 153.457C311.777 150.402 302.984 154.105 300.047 161.711L273.219 231.176C270.281 238.785 274.312 247.426 282.219 250.473C290.125 253.523 328.684 172.754 328.684 172.754Z" fill="#F9B57C"/>
<path d="M352.641 191.867C354.914 185.394 350.098 177.797 341.871 174.914C333.649 172.023 325.133 174.937 322.856 181.41L302.066 240.531C299.789 247.008 304.609 254.601 312.84 257.488C321.063 260.371 352.641 191.867 352.641 191.867Z" fill="#F9B57C"/>
<path d="M366.953 215.883C369.559 210.949 366.918 204.453 361.066 201.371C355.215 198.293 348.363 199.793 345.758 204.727L322.012 249.773C319.406 254.707 310.262 264.141 316.113 267.219L351.48 239.293C360.125 228.691 366.953 215.883 366.953 215.883Z" fill="#F9B57C"/>
<path d="M234.609 334.625C234.609 335.266 234.547 335.902 234.422 336.531C234.297 337.16 234.109 337.77 233.863 338.363C233.621 338.953 233.32 339.516 232.961 340.051C232.605 340.582 232.199 341.074 231.746 341.527C231.293 341.98 230.801 342.387 230.266 342.742C229.734 343.098 229.172 343.398 228.578 343.645C227.984 343.891 227.375 344.074 226.746 344.199C226.117 344.324 225.48 344.387 224.84 344.387C224.199 344.387 223.563 344.324 222.934 344.199C222.305 344.074 221.695 343.891 221.102 343.645C220.508 343.398 219.945 343.098 219.414 342.742C218.879 342.387 218.387 341.98 217.934 341.527C217.477 341.074 217.074 340.582 216.719 340.051C216.359 339.516 216.059 338.953 215.812 338.363C215.57 337.77 215.383 337.16 215.258 336.531C215.133 335.902 215.07 335.266 215.07 334.625C215.07 333.984 215.133 333.352 215.258 332.723C215.383 332.094 215.57 331.484 215.812 330.891C216.059 330.297 216.359 329.734 216.719 329.203C217.074 328.672 217.477 328.176 217.934 327.723C218.387 327.27 218.879 326.867 219.414 326.512C219.945 326.152 220.508 325.852 221.102 325.609C221.695 325.363 222.305 325.176 222.934 325.051C223.563 324.926 224.199 324.863 224.84 324.863C225.48 324.863 226.117 324.926 226.746 325.051C227.375 325.176 227.984 325.363 228.578 325.609C229.172 325.852 229.734 326.152 230.266 326.512C230.801 326.867 231.293 327.27 231.746 327.723C232.199 328.176 232.605 328.672 232.961 329.203C233.32 329.734 233.621 330.297 233.863 330.891C234.109 331.484 234.297 332.094 234.422 332.723C234.547 333.352 234.609 333.984 234.609 334.625Z" fill="#FDC400"/>
</g>
<defs>
<filter id="filter0_d" x="0" y="0" width="387.957" height="430.505" filterUnits="userSpaceOnUse" color-interpolation-filters="sRGB">
<feFlood flood-opacity="0" result="BackgroundImageFix"/>
<feColorMatrix in="SourceAlpha" type="matrix" values="0 0 0 0 0 0 0 0 0 0 0 0 0 0 0 0 0 0 127 0" result="hardAlpha"/>
<feOffset dx="10" dy="3"/>
<feGaussianBlur stdDeviation="5"/>
<feComposite in2="hardAlpha" operator="out"/>
<feColorMatrix type="matrix" values="0 0 0 0 0 0 0 0 0 0 0 0 0 0 0 0 0 0 0.25 0"/>
<feBlend mode="normal" in2="BackgroundImageFix" result="effect1_dropShadow"/>
<feBlend mode="normal" in="SourceGraphic" in2="effect1_dropShadow" result="shape"/>
</filter>
</defs>
</svg>
