<svg width="224" height="413" viewBox="0 0 224 413" fill="none" xmlns="http://www.w3.org/2000/svg">
<path d="M130.152 268.156C130.152 278.238 122 286.414 111.945 286.414C101.891 286.414 93.7383 278.238 93.7383 268.156C93.7383 258.074 101.891 249.902 111.945 249.902C122 249.902 130.152 258.074 130.152 268.156Z" fill="#112032"/>
<path d="M93.7383 333.297C92.8203 333.297 92.0781 332.551 92.0781 331.637V274.383C92.0781 273.461 92.8203 272.719 93.7383 272.719H129.332C130.246 272.719 130.984 273.461 130.984 274.383V331.637C130.984 332.551 130.246 333.297 129.332 333.297H93.7383Z" fill="#345797"/>
<path d="M129.332 271.062H93.7383C91.9063 271.062 90.4258 272.547 90.4258 274.383V331.637C90.4258 333.469 91.9063 334.953 93.7383 334.953H129.332C131.16 334.953 132.637 333.469 132.637 331.637V274.383C132.637 272.547 131.16 271.062 129.332 271.062ZM129.332 274.383V331.637H93.7383V274.383H129.332Z" fill="#203D69"/>
<path d="M93.7383 318.633V274.383H111.527V317.109C108.484 317.109 105.445 317.246 102.422 317.512V274.383H93.7383V318.633Z" fill="#27477A"/>
<path d="M93.7383 318.633V274.383H102.422V317.512C99.5117 317.766 96.6133 318.137 93.7383 318.633Z" fill="#1C3355"/>
<path d="M11.4337 403C10.9337 403 10.4611 402.77 10.1486 402.379C9.83215 401.988 9.71105 401.48 9.81652 400.988C14.7579 378.047 27.5236 357.191 45.7579 342.258C64.2462 327.113 87.6056 318.773 111.527 318.773C135.453 318.773 158.817 327.113 177.309 342.258C195.543 357.191 208.305 378.047 213.246 400.988C213.356 401.48 213.234 401.988 212.918 402.379C212.606 402.77 212.133 403 211.633 403H11.4337Z" fill="#345797"/>
<path d="M111.527 317.109C87.2265 317.109 63.496 325.586 44.707 340.973C26.1835 356.137 13.2187 377.332 8.19917 400.637C7.98433 401.617 8.23042 402.645 8.85933 403.426C9.48823 404.199 10.4335 404.656 11.4335 404.656H211.633C212.629 404.656 213.574 404.199 214.211 403.426C214.836 402.645 215.078 401.617 214.867 400.637C209.844 377.332 196.879 356.137 178.355 340.973C159.566 325.586 135.836 317.109 111.527 317.109ZM111.527 320.43C160.644 320.43 201.664 355.094 211.633 401.336H11.4335C21.4023 355.094 62.4218 320.43 111.527 320.43Z" fill="#203D69"/>
<path d="M211.633 401.336H11.4336C11.4375 401.313 11.4414 401.297 11.4531 401.273C11.4531 401.262 11.457 401.246 11.457 401.234C11.4609 401.227 11.4609 401.219 11.4648 401.207C11.4648 401.195 11.4688 401.184 11.4727 401.164C11.4727 401.16 11.4727 401.152 11.4766 401.148C11.4805 401.129 11.4805 401.117 11.4883 401.098C11.4883 401.094 11.4922 401.086 11.4922 401.082C11.4961 401.066 11.4961 401.051 11.5 401.039C11.5039 401.027 11.5039 401.023 11.5039 401.016C11.5078 400.996 11.5117 400.984 11.5156 400.969C11.5156 400.961 11.5156 400.957 11.5156 400.953C11.5195 400.938 11.5273 400.918 11.5312 400.902C11.5312 400.898 11.5313 400.898 11.5352 400.887C11.5352 400.875 11.5391 400.852 11.543 400.836C11.543 400.832 11.5469 400.832 11.5469 400.828C11.5469 400.812 11.5547 400.789 11.5547 400.773C11.5625 400.77 11.5625 400.766 11.5625 400.762C11.5664 400.742 11.5703 400.727 11.5742 400.707V400.703C21.1016 357.809 57.3828 325.027 101.957 320.883C85.0625 333.328 58.4492 355.984 61.8711 373.125C64.3359 385.477 102.047 388.836 141.039 388.836C165.301 388.836 190.059 387.539 207.125 386.289C208.988 391.141 210.512 396.164 211.633 401.336Z" fill="#29497E"/>
<path d="M211.633 401.336H11.4336H211.633ZM11.4336 401.336C11.4375 401.316 11.4414 401.293 11.4531 401.273C11.4414 401.297 11.4375 401.313 11.4336 401.336ZM11.457 401.234C11.4609 401.227 11.4609 401.219 11.4648 401.207C11.4609 401.219 11.4609 401.227 11.457 401.234ZM11.4727 401.164C11.4727 401.16 11.4727 401.152 11.4766 401.148C11.4727 401.152 11.4727 401.16 11.4727 401.164ZM11.4883 401.098C11.4883 401.09 11.4922 401.086 11.4922 401.082C11.4922 401.086 11.4883 401.094 11.4883 401.098ZM11.5 401.039C11.5039 401.027 11.5039 401.023 11.5039 401.016C11.5039 401.023 11.5039 401.027 11.5 401.039ZM11.5156 400.969C11.5156 400.961 11.5156 400.957 11.5156 400.953C11.5156 400.957 11.5156 400.961 11.5156 400.969ZM11.5312 400.902C11.5312 400.898 11.5313 400.898 11.5352 400.887C11.5313 400.898 11.5312 400.898 11.5312 400.902ZM11.543 400.836C11.543 400.832 11.543 400.832 11.5469 400.828C11.5469 400.832 11.543 400.832 11.543 400.836ZM11.5547 400.773C11.5625 400.77 11.5625 400.77 11.5625 400.762C11.5625 400.766 11.5625 400.77 11.5547 400.773ZM11.5742 400.707V400.703V400.707Z" fill="#203D69"/>
<path d="M6.62109 410.883C3.88672 410.883 1.65234 408.645 1.65234 405.902V401.336C1.65234 398.594 3.88672 396.359 6.62109 396.359H216.445C219.18 396.359 221.41 398.594 221.41 401.336V405.902C221.41 408.645 219.18 410.883 216.445 410.883H6.62109Z" fill="#4972B0"/>
<path d="M216.445 394.699H6.62109C2.97266 394.699 0 397.676 0 401.336V405.902C0 409.563 2.97266 412.535 6.62109 412.535H216.445C220.098 412.535 223.066 409.563 223.066 405.902V401.336C223.066 397.676 220.098 394.699 216.445 394.699ZM216.445 398.02C218.27 398.02 219.754 399.508 219.754 401.336V405.902C219.754 407.734 218.27 409.219 216.445 409.219H6.62109C4.79688 409.219 3.3125 407.734 3.3125 405.902V401.336C3.3125 399.508 4.79688 398.02 6.62109 398.02H216.445Z" fill="#203D69"/>
<path d="M3.3125 404.238V405.902C3.3125 407.734 4.79688 409.219 6.62109 409.219H216.445C218.27 409.219 219.754 407.734 219.754 405.902V404.238H3.3125Z" fill="#355F94"/>
<path d="M137.191 274.383C137.191 276.215 135.707 277.699 133.883 277.699H89.5977C87.7695 277.699 86.2891 276.215 86.2891 274.383V271.477C86.2891 269.645 87.7695 268.156 89.5977 268.156H133.883C135.707 268.156 137.191 269.645 137.191 271.477V274.383Z" fill="#112032"/>
<path d="M109.461 255.02H114.426V0H109.461V255.02Z" fill="#112032"/>
</svg>
