<svg width="238" height="199" viewBox="0 0 238 199" fill="none" xmlns="http://www.w3.org/2000/svg">
<path d="M216.236 117.846C219.372 111.899 221.169 105.138 221.169 97.951C221.169 79.682 209.672 64.1329 193.52 58.0042C193.52 57.9839 193.524 57.9659 193.524 57.9434C193.524 25.9422 167.53 0 135.466 0C108.418 0 85.7567 18.4896 79.3083 43.4772C75.2285 42.1398 70.8807 41.3878 66.3506 41.3878C45.0871 41.3878 27.5836 57.3715 25.1857 77.9528C10.7984 80.9902 0 93.7271 0 108.988C0 126.512 14.2365 140.719 31.794 140.719C32.2826 140.719 32.7667 140.685 33.2485 140.658C33.2372 141.14 33.1764 141.613 33.1764 142.097C33.1764 173.337 58.5491 198.66 89.85 198.66C107.646 198.66 123.51 190.46 133.901 177.653C139.924 183.791 148.295 187.625 157.583 187.625C170.439 187.625 181.564 180.312 187.071 169.64C189.978 170.565 193.072 171.07 196.287 171.07C213.084 171.07 226.699 157.479 226.699 140.719C226.699 131.582 222.635 123.409 216.236 117.846Z" fill="#EDEDED"/>
<path d="M186.612 111.746V113.127H194.907V111.746C194.907 111.746 206.633 111.746 210.112 111.746C216.981 111.746 222.551 106.187 222.551 99.3314C222.551 92.8942 217.625 87.6616 211.341 87.038C211.402 86.5404 211.494 86.0518 211.494 85.5362C211.494 78.678 205.924 73.1189 199.052 73.1189C195.078 73.1189 191.579 75.0125 189.303 77.908C188.915 70.6355 182.938 64.8423 175.553 64.8423C167.92 64.8423 161.73 71.0183 161.73 78.6375C161.73 79.8668 161.944 81.0376 162.248 82.1746C160.472 80.0312 157.822 78.6375 154.818 78.6375C149.896 78.6375 145.877 82.321 145.267 87.0672C144.767 87.0064 144.276 86.9141 143.761 86.9141C136.891 86.9141 131.319 92.4754 131.319 99.3314C131.319 106.187 136.891 111.746 143.761 111.746C150.63 111.746 170.025 111.746 170.025 111.746H186.612Z" fill="#FDFCEF"/>
<path d="M175.552 63.4619C167.168 63.4619 160.348 70.2683 160.348 78.6373C160.348 78.6823 160.348 78.7229 160.348 78.7679C158.684 77.7862 156.781 77.2571 154.818 77.2571C149.757 77.2571 145.389 80.738 144.153 85.5495C144.024 85.5405 143.894 85.536 143.761 85.536C136.139 85.536 129.936 91.7232 129.936 99.3312C129.936 106.937 136.139 113.126 143.761 113.126H186.612C187.375 113.126 187.994 112.509 187.994 111.746C187.994 110.985 187.375 110.368 186.612 110.368H143.761C137.661 110.368 132.701 105.417 132.701 99.3312C132.701 93.2453 137.661 88.2942 143.761 88.2942C144.085 88.2942 144.396 88.3414 144.709 88.382L145.098 88.436C145.157 88.4428 145.211 88.445 145.269 88.445C145.949 88.445 146.548 87.9362 146.638 87.2404C147.167 83.1201 150.682 80.0175 154.818 80.0175C157.265 80.0175 159.582 81.123 161.181 83.0526C161.451 83.3768 161.847 83.5547 162.248 83.5547C162.462 83.5547 162.678 83.5051 162.879 83.3993C163.455 83.1044 163.745 82.4447 163.579 81.8187C163.261 80.6187 163.113 79.6077 163.113 78.6373C163.113 71.7926 168.694 66.2201 175.552 66.2201C182.136 66.2201 187.571 71.3851 187.922 77.9821C187.952 78.5562 188.337 79.0516 188.886 79.2249C189.026 79.27 189.165 79.2902 189.307 79.2902C189.721 79.2902 190.127 79.1011 190.39 78.7611C192.522 76.0525 195.677 74.499 199.052 74.499C205.151 74.499 210.111 79.4479 210.111 85.536C210.111 85.858 210.064 86.1687 210.024 86.4817L209.97 86.8712C209.927 87.2404 210.03 87.6097 210.262 87.9001C210.496 88.1883 210.836 88.3752 211.203 88.4112C216.886 88.9764 221.169 93.6708 221.169 99.3312C221.169 105.417 216.211 110.368 210.111 110.368H194.907C194.143 110.368 193.524 110.985 193.524 111.746C193.524 112.509 194.143 113.126 194.907 113.126H210.111C217.733 113.126 223.934 106.937 223.934 99.3312C223.934 92.7162 219.264 87.1549 212.867 85.8737C212.874 85.7612 212.876 85.6486 212.876 85.536C212.876 77.9281 206.676 71.7386 199.052 71.7386C195.801 71.7386 192.714 72.8869 190.253 74.9515C188.6 68.3185 182.618 63.4619 175.552 63.4619Z" fill="#472B29"/>
<path d="M171.407 82.7754C167.528 82.7754 164.193 85.5313 163.354 89.2351C162.338 88.6226 161.181 88.2939 160.003 88.2939C156.68 88.2939 153.926 90.7684 153.496 93.9993C152.936 93.8732 152.402 93.8124 151.88 93.8124C147.654 93.8124 144.11 97.1245 143.813 101.351C143.788 101.731 144.076 102.062 144.454 102.089C144.47 102.089 144.488 102.089 144.504 102.089C144.864 102.089 145.168 101.812 145.193 101.45C145.438 97.9418 148.374 95.1926 151.88 95.1926C152.512 95.1926 153.179 95.3075 153.92 95.5416C153.98 95.5619 154.046 95.5709 154.107 95.5709C154.257 95.5709 154.411 95.5146 154.537 95.42C154.714 95.294 154.818 95.0688 154.818 94.8459C154.818 91.9932 157.144 89.6741 160.003 89.6741C161.237 89.6741 162.449 90.1379 163.405 90.9778C163.536 91.0926 163.698 91.1534 163.862 91.1534C163.95 91.1534 164.036 91.1354 164.119 91.0993C164.362 91.0025 164.529 90.7774 164.547 90.5162C164.835 86.9475 167.845 84.1556 171.407 84.1556C171.982 84.1556 172.58 84.2501 173.292 84.4505C173.355 84.4708 173.423 84.4776 173.486 84.4776C173.787 84.4776 174.057 84.2772 174.145 83.9755C174.251 83.6085 174.039 83.228 173.67 83.1244C172.835 82.8857 172.114 82.7754 171.407 82.7754ZM209.787 86.9137C206.122 86.9137 202.855 89.3904 201.841 92.9343C201.738 93.3013 201.95 93.6819 202.317 93.7877C202.384 93.8034 202.447 93.8124 202.508 93.8124C202.81 93.8124 203.087 93.6143 203.172 93.3103C204.014 90.3586 206.736 88.2939 209.787 88.2939C210.111 88.2939 210.424 88.3322 210.733 88.375C210.767 88.3795 210.796 88.3817 210.83 88.3817C211.165 88.3817 211.462 88.1296 211.51 87.7828C211.564 87.4046 211.298 87.0578 210.917 87.0083C210.548 86.9588 210.172 86.9137 209.787 86.9137Z" fill="#472B29"/>
<path d="M103.674 24.8323H76.0277C75.2644 24.8323 74.6453 24.2154 74.6453 23.4544C74.6453 22.6933 75.2644 22.0742 76.0277 22.0742H103.674C104.438 22.0742 105.057 22.6933 105.057 23.4544C105.057 24.2154 104.44 24.8323 103.674 24.8323ZM111.967 24.8323H109.202C108.441 24.8323 107.819 24.2154 107.819 23.4544C107.819 22.6933 108.441 22.0742 109.202 22.0742H111.967C112.73 22.0742 113.349 22.6933 113.349 23.4544C113.349 24.2154 112.732 24.8323 111.967 24.8323ZM125.766 30.3508H100.909C100.146 30.3508 99.527 29.7339 99.527 28.9729C99.527 28.2096 100.146 27.5927 100.909 27.5927H125.766C126.53 27.5927 127.149 28.2096 127.149 28.9729C127.149 29.7339 126.53 30.3508 125.766 30.3508ZM95.3797 30.3508H92.6148C91.8515 30.3508 91.2324 29.7339 91.2324 28.9729C91.2324 28.2096 91.8515 27.5927 92.6148 27.5927H95.3797C96.143 27.5927 96.7621 28.2096 96.7621 28.9729C96.7621 29.7339 96.1452 30.3508 95.3797 30.3508ZM87.085 30.3508H81.5575C80.7942 30.3508 80.175 29.7339 80.175 28.9729C80.175 28.2096 80.7942 27.5927 81.5575 27.5927H87.085C87.8483 27.5927 88.4675 28.2096 88.4675 28.9729C88.4675 29.7339 87.8528 30.3508 87.085 30.3508ZM103.674 35.8693H98.1446C97.3813 35.8693 96.7621 35.2524 96.7621 34.4914C96.7621 33.7281 97.3813 33.1112 98.1446 33.1112H103.674C104.438 33.1112 105.057 33.7281 105.057 34.4914C105.057 35.2524 104.438 35.8693 103.674 35.8693ZM111.967 11.0371C111.478 11.0371 109.693 11.0371 109.202 11.0371C108.441 11.0371 107.819 11.6563 107.819 12.4173C107.819 13.1783 108.441 13.7975 109.202 13.7975C109.693 13.7975 111.478 13.7975 111.967 13.7975C112.73 13.7975 113.349 13.1783 113.349 12.4173C113.349 11.6563 112.73 11.0371 111.967 11.0371ZM111.967 16.5556C111.478 16.5556 98.6332 16.5556 98.1446 16.5556C97.3813 16.5556 96.7621 17.1748 96.7621 17.9358C96.7621 18.6968 97.3813 19.316 98.1446 19.316C98.6332 19.316 111.478 19.316 111.967 19.316C112.73 19.316 113.349 18.6968 113.349 17.9358C113.349 17.1748 112.73 16.5556 111.967 16.5556ZM125.791 22.0742C125.3 22.0742 117.985 22.0742 117.497 22.0742C116.733 22.0742 116.114 22.6933 116.114 23.4544C116.114 24.2154 116.733 24.8323 117.497 24.8323C117.985 24.8323 125.3 24.8323 125.791 24.8323C126.555 24.8323 127.174 24.2154 127.174 23.4544C127.174 22.6933 126.555 22.0742 125.791 22.0742ZM211.494 140.719H183.847C183.084 140.719 182.465 140.1 182.465 139.339C182.465 138.578 183.084 137.959 183.847 137.959H211.494C212.257 137.959 212.876 138.578 212.876 139.339C212.876 140.1 212.257 140.719 211.494 140.719ZM222.551 140.719H217.024C216.26 140.719 215.641 140.1 215.641 139.339C215.641 138.578 216.26 137.959 217.024 137.959H222.551C223.314 137.959 223.934 138.578 223.934 139.339C223.934 140.1 223.314 140.719 222.551 140.719ZM236.376 146.238H208.729C207.966 146.238 207.347 145.618 207.347 144.857C207.347 144.096 207.966 143.477 208.729 143.477H236.376C237.139 143.477 237.758 144.096 237.758 144.857C237.758 145.618 237.141 146.238 236.376 146.238ZM203.199 146.238H200.434C199.671 146.238 199.052 145.618 199.052 144.857C199.052 144.096 199.671 143.477 200.434 143.477H203.199C203.962 143.477 204.582 144.096 204.582 144.857C204.582 145.618 203.962 146.238 203.199 146.238ZM194.823 146.238H189.377C188.614 146.238 187.995 145.618 187.995 144.857C187.995 144.096 188.614 143.477 189.377 143.477H194.823C195.587 143.477 196.206 144.096 196.206 144.857C196.206 145.618 195.587 146.238 194.823 146.238ZM219.786 135.201H205.964C205.201 135.201 204.582 134.581 204.582 133.82C204.582 133.059 205.201 132.44 205.964 132.44H219.786C220.55 132.44 221.169 133.059 221.169 133.82C221.169 134.581 220.554 135.201 219.786 135.201ZM211.494 151.756H205.964C205.201 151.756 204.582 151.137 204.582 150.376C204.582 149.615 205.201 148.996 205.964 148.996H211.494C212.257 148.996 212.876 149.615 212.876 150.376C212.876 151.137 212.257 151.756 211.494 151.756Z" fill="white"/>
<path d="M77.291 163.619C67.7534 163.619 59.9946 155.874 59.9946 146.359V74.3773C59.9946 64.86 67.7557 57.1147 77.291 57.1147H149.412C158.948 57.1147 166.706 64.86 166.706 74.3773V146.359C166.706 155.874 158.948 163.619 149.412 163.619H77.291Z" fill="#67BA8C"/>
<path d="M149.408 59.0465C157.88 59.0465 164.772 65.9249 164.772 74.3794V146.359C164.772 154.811 157.88 161.69 149.408 161.69H77.2908C68.8205 161.69 61.9285 154.811 61.9285 146.359V74.3794C61.9285 65.9249 68.8205 59.0465 77.2908 59.0465H149.408ZM149.408 55.1851H77.2908C66.7108 55.1851 58.0581 63.8197 58.0581 74.3794V146.359C58.0581 156.914 66.7108 165.551 77.2908 165.551H149.412C159.988 165.551 168.643 156.914 168.643 146.354V74.3794C168.643 63.8197 159.988 55.1851 149.408 55.1851Z" fill="#472B29"/>
<path d="M156.89 105.3C156.126 105.3 155.507 104.681 155.507 103.92V94.7313C155.507 93.9702 156.126 93.3511 156.89 93.3511C157.653 93.3511 158.272 93.9702 158.272 94.7313V103.92C158.272 104.681 157.653 105.3 156.89 105.3Z" fill="#472B29"/>
<path d="M156.89 88.999C156.126 88.999 155.507 88.3798 155.507 87.6188V82.8748C155.507 82.1138 156.126 81.4946 156.89 81.4946C157.653 81.4946 158.272 82.1138 158.272 82.8748V87.6188C158.272 88.3798 157.653 88.999 156.89 88.999Z" fill="#472B29"/>
<path d="M114.126 121.108C114.126 121.108 85.16 148.883 73.7717 161.915C74.9088 162.183 76.0863 162.336 77.3021 162.336H148.575C150.479 162.336 152.294 161.976 153.981 161.343C142.266 148.088 114.126 121.108 114.126 121.108Z" fill="#3E7BF1"/>
<path d="M148.575 163.027H77.3021C76.093 163.027 74.8524 162.877 73.6141 162.588L72.4973 162.325L73.2493 161.463C84.5228 148.557 113.356 120.892 113.646 120.611L114.124 120.151L114.601 120.611C114.885 120.883 142.896 147.76 154.496 160.888L155.158 161.636L154.219 161.989C152.389 162.678 150.491 163.027 148.575 163.027ZM75.0866 161.469C75.8341 161.586 76.5771 161.645 77.3044 161.645H148.577C149.991 161.645 151.398 161.436 152.776 161.021C141.71 148.665 117.814 125.609 114.128 122.063C110.4 125.656 85.966 149.235 75.0866 161.469Z" fill="#472B29"/>
<path d="M106.108 119.321L150.434 162.307C155.732 162.109 160.371 159.398 163.113 155.361L116.029 109.7L106.108 119.321Z" fill="#FFFEF4"/>
<path d="M150.164 163.007L105.118 119.32L116.029 108.736L164.009 155.268L163.685 155.748C160.74 160.084 155.795 162.795 150.461 162.996L150.164 163.007ZM107.101 119.32L150.702 161.602C155.289 161.343 159.533 159.067 162.208 155.444L116.029 110.663L107.101 119.32Z" fill="#472B29"/>
<path d="M120.068 115.182C120.068 115.182 149.505 144.542 162.969 155.721C164.797 153.215 165.878 150.178 165.878 146.897V75.7644C165.878 74.6769 165.756 73.6187 165.531 72.5942C153.755 81.5801 120.068 115.182 120.068 115.182Z" fill="#BEBACB"/>
<path d="M163.09 156.719L162.523 156.25C149.194 145.184 119.872 115.964 119.579 115.671L119.088 115.182L119.579 114.694C119.915 114.358 153.433 80.9588 165.112 72.045L165.977 71.3853L166.209 72.4457C166.45 73.5422 166.571 74.6612 166.571 75.7645V146.897C166.571 150.207 165.517 153.398 163.527 156.126L163.09 156.719ZM121.047 115.182C124.888 119.003 150.274 144.16 162.829 154.706C164.374 152.355 165.186 149.671 165.186 146.897V75.7645C165.186 75.1273 165.139 74.4811 165.054 73.8417C153.555 82.9582 125.136 111.118 121.047 115.182Z" fill="#472B29"/>
<path d="M76.5591 162.3L164.011 75.019C163.766 69.9035 161.026 65.4342 156.966 62.8066L64.3242 155.268C66.954 159.319 71.4301 162.055 76.5591 162.3Z" fill="#FDE751"/>
<path d="M76.8294 163.003L76.5232 162.987C71.3469 162.739 66.5669 159.994 63.7412 155.642L63.4373 155.174L63.8335 154.78L156.869 61.9219L157.34 62.2258C161.701 65.0493 164.45 69.818 164.7 74.9831L164.714 75.287L76.8294 163.003ZM65.216 155.356C67.7715 158.984 71.8558 161.289 76.2868 161.595L163.304 74.7489C163 70.3269 160.69 66.2516 157.052 63.6961L65.216 155.356Z" fill="#472B29"/>
<path d="M88.4157 83.7125V89.938H97.3115C96.1407 93.7138 92.9863 96.4112 88.4157 96.4112C82.976 96.4112 78.5674 92.0139 78.5674 86.5832C78.5674 81.1435 82.976 76.7417 88.4157 76.7417C90.8631 76.7417 93.1011 77.6446 94.8191 79.1148L99.4145 74.5284C96.5122 71.8874 92.6621 70.2798 88.4157 70.2798C79.3915 70.2798 72.083 77.586 72.083 86.5809C72.083 95.5758 79.3893 102.882 88.4157 102.882C102.706 102.882 105.156 90.0888 103.809 83.7327L88.4157 83.7125Z" fill="white"/>
<path d="M88.4157 103.571C79.0268 103.571 71.3918 95.9471 71.3918 86.5806C71.3918 77.2142 79.0268 69.5928 88.4157 69.5928C92.6712 69.5928 96.7419 71.1621 99.8783 74.0193L100.412 74.5034L94.8551 80.0557L94.3688 79.6391C92.7072 78.2139 90.5907 77.4304 88.4157 77.4304C83.3678 77.4304 79.2587 81.5349 79.2587 86.5806C79.2587 91.6196 83.3678 95.7219 88.4157 95.7219C92.0812 95.7219 94.979 93.8351 96.3277 90.6289H87.7245V83.021L104.37 83.0435L104.487 83.5906C105.361 87.7154 104.663 93.8216 101.141 98.1581C98.2212 101.752 93.9388 103.571 88.4157 103.571ZM88.4157 70.973C79.7901 70.973 72.7743 77.9753 72.7743 86.5806C72.7743 95.1883 79.7901 102.193 88.4157 102.193C93.502 102.193 97.4219 100.542 100.065 97.289C103.152 93.4906 103.873 88.204 103.238 84.4237L89.107 84.4012V89.2487H98.2527L97.9735 90.1426C96.6204 94.4993 93.0472 97.0976 88.4135 97.0976C82.6023 97.0976 77.874 92.3806 77.874 86.5784C77.874 80.7717 82.6023 76.0479 88.4135 76.0479C90.7078 76.0479 92.9391 76.8022 94.7651 78.1847L98.3968 74.5619C95.6004 72.2406 92.0812 70.973 88.4157 70.973Z" fill="#472B29"/>
<path d="M147.24 39.9019C130.837 39.9019 117.542 53.1702 117.542 69.5411C117.542 89.7307 140.303 97.0932 145.254 128.376C145.578 130.391 145.603 131.783 147.24 131.783C148.874 131.783 148.897 130.391 149.223 128.376C154.174 97.0932 176.935 89.7307 176.935 69.5411C176.935 53.1702 163.642 39.9019 147.24 39.9019Z" fill="#EA4989"/>
<path d="M147.239 133.161C144.583 133.161 144.234 130.857 143.981 129.178L143.891 128.595C141.34 112.492 133.973 102.866 127.473 94.3734C121.403 86.4367 116.159 79.5853 116.159 69.5434C116.159 52.4384 130.101 38.5239 147.235 38.5239C164.374 38.5239 178.315 52.4384 178.315 69.5434C178.315 79.5853 173.074 86.4367 166.999 94.3734C160.501 102.866 153.132 112.492 150.583 128.592L150.493 129.173C150.245 130.857 149.899 133.161 147.239 133.161ZM147.239 41.2798C131.627 41.2798 118.926 53.9582 118.926 69.5411C118.926 78.6509 123.907 85.1578 129.675 92.696C136.374 101.45 143.966 111.373 146.625 128.162L146.715 128.768C146.809 129.387 146.938 130.231 147.091 130.418L147.438 130.382C147.546 130.231 147.672 129.387 147.766 128.766L147.859 128.158C150.518 111.373 158.11 101.45 164.808 92.696C170.574 85.1601 175.557 78.6509 175.557 69.5411C175.553 53.9582 162.849 41.2798 147.239 41.2798Z" fill="#472B29"/>
<path d="M157.633 69.5411C157.633 75.2713 152.981 79.914 147.24 79.914C141.496 79.914 136.844 75.2713 136.844 69.5411C136.844 63.8087 141.496 59.166 147.24 59.166C152.981 59.166 157.633 63.8087 157.633 69.5411Z" fill="#FFFEF4"/>
<path d="M147.239 81.2917C140.744 81.2917 135.464 76.0209 135.464 69.5409C135.464 63.0588 140.744 57.7856 147.239 57.7856C153.733 57.7856 159.015 63.0588 159.015 69.5409C159.015 76.0209 153.731 81.2917 147.239 81.2917ZM147.239 60.546C142.27 60.546 138.229 64.5785 138.229 69.5409C138.229 74.4988 142.27 78.5313 147.239 78.5313C152.209 78.5313 156.25 74.4988 156.25 69.5409C156.25 64.5785 152.209 60.546 147.239 60.546Z" fill="#472B29"/>
<path d="M149.588 104.156C149.369 104.156 149.151 104.104 148.946 103.996C148.273 103.643 148.009 102.81 148.367 102.134C152.087 95.0532 159.121 85.9232 162.127 82.0281C162.793 81.1635 163.248 80.5736 163.401 80.3507C165.574 77.1422 166.72 73.3889 166.72 69.5005C166.72 68.7395 167.339 68.1226 168.102 68.1226C168.865 68.1226 169.485 68.7395 169.485 69.5005C169.485 73.9383 168.172 78.2252 165.689 81.8952C165.526 82.1361 165.038 82.7733 164.317 83.7077C161.357 87.5511 154.424 96.5438 150.813 103.418C150.567 103.886 150.085 104.156 149.588 104.156Z" fill="#472B29"/>
<path d="M167.346 65.3215C166.738 65.3215 166.182 64.9185 166.015 64.3106C165.56 62.676 164.894 61.1089 164.032 59.6521C163.111 58.0941 161.969 56.6689 160.641 55.4125C160.089 54.8879 160.064 54.0143 160.587 53.4627C161.114 52.911 161.989 52.893 162.541 53.4064C164.056 54.8429 165.358 56.4662 166.409 58.2494C167.393 59.9156 168.156 61.7078 168.672 63.5743C168.877 64.3106 168.447 65.0694 167.711 65.272C167.591 65.3058 167.467 65.3215 167.346 65.3215Z" fill="#472B29"/>
<path d="M156.845 52.4159C156.631 52.4159 156.414 52.3664 156.212 52.2628C153.431 50.8241 150.423 50.0968 147.278 50.0968C146.514 50.0968 145.895 49.4776 145.895 48.7166C145.895 47.9556 146.514 47.3364 147.278 47.3364C150.822 47.3364 154.352 48.1943 157.482 49.8086C158.162 50.1599 158.427 50.9929 158.076 51.6684C157.831 52.1435 157.347 52.4159 156.845 52.4159Z" fill="#472B29"/>
<path d="M70.4979 136.581C70.4979 136.581 74.8299 136.581 80.175 136.581C85.5179 136.581 89.8499 132.256 89.8499 126.922C89.8499 122.009 86.1596 117.999 81.4044 117.391C81.4832 116.895 81.5575 116.402 81.5575 115.887C81.5575 110.553 77.2255 106.23 71.8804 106.23C69.0277 106.23 66.4902 107.484 64.7205 109.443C63.6577 104.456 59.2267 100.711 53.9108 100.711C47.8046 100.711 42.8513 105.651 42.8513 111.746C42.8513 112.275 42.9346 112.78 43.0066 113.286C41.8246 112.338 40.343 111.746 38.7062 111.746C35.3108 111.746 32.4987 114.194 31.9178 117.418C31.4224 117.339 30.9293 117.265 30.4115 117.265C25.0686 117.265 20.7344 121.59 20.7344 126.922C20.7344 132.256 25.0686 136.581 30.4115 136.581C35.7544 136.581 51.1459 136.581 51.1459 136.581V137.959H70.4979V136.581Z" fill="#FDFCEF"/>
<path d="M75.3364 124.164C74.9559 124.164 74.6452 123.855 74.6452 123.475C74.6452 120.1 77.3966 117.355 80.7761 117.355C80.8707 117.38 82.8138 117.35 84.2165 117.729C84.5835 117.828 84.8019 118.206 84.7028 118.573C84.6038 118.942 84.2255 119.161 83.8563 119.059C82.6292 118.728 80.8167 118.728 80.7806 118.733C78.1599 118.733 76.0276 120.861 76.0276 123.475C76.0276 123.855 75.7169 124.164 75.3364 124.164ZM56.6757 135.201C56.491 135.201 56.3154 135.234 56.1465 135.304C55.9777 135.376 55.8268 135.475 55.6985 135.604C55.5679 135.734 55.4688 135.883 55.399 136.052C55.327 136.221 55.2932 136.396 55.2932 136.581C55.2932 136.763 55.327 136.939 55.399 137.108C55.4688 137.277 55.5679 137.425 55.6985 137.556C55.8268 137.684 55.9777 137.785 56.1465 137.855C56.3154 137.925 56.491 137.959 56.6757 137.959C56.858 137.959 57.0359 137.925 57.2048 137.855C57.3736 137.785 57.5222 137.684 57.6528 137.556C57.7812 137.425 57.8825 137.277 57.9523 137.108C58.0221 136.939 58.0581 136.763 58.0581 136.581C58.0581 136.396 58.0221 136.221 57.9523 136.052C57.8825 135.883 57.7812 135.734 57.6528 135.604C57.5222 135.475 57.3736 135.376 57.2048 135.304C57.0359 135.234 56.858 135.201 56.6757 135.201Z" fill="#472B29"/>
<path d="M80.1752 137.958H70.498C69.7348 137.958 69.1156 137.342 69.1156 136.581C69.1156 135.817 69.7348 135.2 70.498 135.2H80.1752C84.748 135.2 88.4676 131.485 88.4676 126.921C88.4676 122.794 85.3582 119.284 81.2311 118.757C80.8596 118.708 80.5264 118.514 80.3012 118.217C80.0783 117.92 79.9838 117.544 80.0423 117.177C80.1054 116.751 80.1752 116.328 80.1752 115.887C80.1752 111.323 76.4534 107.608 71.8805 107.608C69.5299 107.608 67.3526 108.587 65.745 110.368C65.4006 110.751 64.8579 110.913 64.3648 110.776C63.8605 110.641 63.4755 110.238 63.3674 109.731C62.4263 105.304 58.4478 102.089 53.9109 102.089C48.5748 102.089 44.2338 106.421 44.2338 111.746C44.2338 112.142 44.2924 112.521 44.3487 112.901C44.4275 113.459 44.173 114.108 43.6799 114.389C43.1846 114.671 42.5834 114.716 42.1421 114.362C41.1335 113.554 39.9469 113.126 38.7063 113.126C36.0337 113.126 33.7507 115.033 33.2778 117.663C33.145 118.399 32.4605 118.892 31.7063 118.78C31.2807 118.715 30.8529 118.645 30.4116 118.645C25.8387 118.645 22.1169 122.36 22.1169 126.921C22.1169 131.485 25.8387 135.2 30.4116 135.2H51.1461C51.9093 135.2 52.5285 135.817 52.5285 136.581C52.5285 137.342 51.9093 137.958 51.1461 137.958H30.4116C24.3122 137.958 19.3521 133.01 19.3521 126.921C19.3521 120.836 24.3122 115.887 30.4116 115.887C30.5737 115.887 30.7313 115.891 30.8934 115.902C32.0372 112.631 35.1421 110.368 38.7063 110.368C39.67 110.368 40.6111 110.535 41.5005 110.863C41.9575 104.426 47.3477 99.3311 53.9109 99.3311C58.9724 99.3311 63.4935 102.44 65.3915 106.984C67.2716 105.611 69.5456 104.85 71.8805 104.85C77.9799 104.85 82.9401 109.798 82.9401 115.887C82.9401 116.017 82.9355 116.148 82.9288 116.278C87.7471 117.514 91.2325 121.871 91.2325 126.921C91.2325 133.01 86.2723 137.958 80.1752 137.958Z" fill="#472B29"/>
<path d="M64.9681 135.201C64.529 135.201 62.6445 135.201 62.2054 135.201C61.4422 135.201 60.823 135.818 60.823 136.581C60.823 137.342 61.4422 137.959 62.2054 137.959C62.6445 137.959 64.529 137.959 64.9681 137.959C65.7314 137.959 66.3505 137.342 66.3505 136.581C66.3505 135.818 65.7314 135.201 64.9681 135.201Z" fill="#472B29"/>
</svg>
