<svg width="167" height="107" viewBox="0 0 167 107" fill="none" xmlns="http://www.w3.org/2000/svg">
<path d="M110.277 86.2227C110.277 86.2227 120.047 88.6654 123.33 87.9429C126.606 87.2187 128.777 79.8604 121.49 76.9971L110.277 86.2227Z" fill="#CB7749"/>
<path d="M103.791 38.4389C103.791 38.4389 89.1063 40.918 85.0271 41.6042C80.9495 42.2983 36.3299 73.7997 36.3299 73.7997C36.3299 73.7997 32.3915 76.9887 35.8809 82.494C36.8454 84.0229 39.7751 86.8198 43.1033 86.6728L50.2134 84.0735C50.2134 84.0735 46.8726 87.4396 48.1232 91.5725C48.7714 93.7133 52.7605 99.1981 59.0769 96.8723C59.0769 96.8723 60.3876 104.645 69.0819 101.492C69.0819 101.492 72.8734 108.844 81.2135 106.172C81.2135 106.172 132.568 74.9222 137.743 65.7852L119.016 35.8696L103.791 38.4389Z" fill="#F9B57C"/>
<path d="M109.409 34.3568C109.409 34.3568 116.955 61.8659 136.006 72.1034L147.159 63.5624L122.608 27.272L109.409 34.3568Z" fill="#F2F1F9"/>
<path d="M115.806 28.4229C115.806 28.4229 126.119 56.4996 144.612 68.4051L166.936 53.377L138.811 13.8833L115.806 28.4229Z" fill="#2C5189"/>
<path d="M100.59 92.349C101.562 94.8645 104.373 96.112 106.876 95.146C109.387 94.1783 110.631 91.3514 109.666 88.8343L105.802 78.7976C104.838 76.2806 102.017 75.0331 99.5144 75.9991C97.0052 76.9747 95.7609 79.7937 96.7254 82.3108L100.59 92.349Z" fill="#CB7749"/>
<path d="M92.3601 97.6109C93.8985 99.818 96.931 100.357 99.1319 98.8141C101.341 97.2709 101.878 94.2305 100.34 92.0233L95.5618 85.0935C94.0234 82.8863 90.9909 82.3471 88.7885 83.8903C86.5876 85.4318 86.0501 88.4738 87.5884 90.6794L92.3601 97.6109Z" fill="#CB7749"/>
<path d="M84.9464 103.456C86.4848 105.663 89.5173 106.202 91.7182 104.659C93.9206 103.116 94.4582 100.076 92.9182 97.8686L88.1481 90.9466C86.6097 88.7315 83.5772 88.1924 81.3764 89.7355C79.1755 91.2787 78.6379 94.3191 80.1763 96.5262L84.9464 103.456Z" fill="#CB7749"/>
<path d="M74.6332 28.711C74.6332 28.711 76.0973 28.8074 77.9456 30.7111C79.8002 32.6163 89.8558 43.8783 92.4251 44.9787C92.4251 44.9787 95.3406 47.1479 93.4417 49.0089C91.5428 50.8603 83.4809 55.0834 76.4435 46.3147L43.2061 68.981C43.2061 68.981 39.6203 67.6308 36.8312 63.15C36.8312 63.15 30.2856 53.9387 27.3938 47.0088L52.1424 24.9243C52.1424 24.9243 62.8684 26.5259 74.6332 28.711Z" fill="#CB7749"/>
<path d="M56.9282 24.5618C56.9282 24.5618 45.4512 50.6765 25.1043 58.0127L15.3269 47.9223L44.9057 15.624L56.9282 24.5618Z" fill="#ABA6DA"/>
<path d="M51.4577 17.7571C51.4577 17.7571 37.1695 44.0267 17.131 53.0894L0 37.0589L30.8231 0L51.4577 17.7571Z" fill="#1B3A60"/>
</svg>
