<svg width="279" height="432" viewBox="0 0 279 432" fill="none" xmlns="http://www.w3.org/2000/svg">
<g filter="url(#filter0_d)">
<path d="M136.481 418.616C94.4302 418.616 60.3442 409.05 60.3442 397.249C60.3442 385.448 94.4302 375.878 136.481 375.878C178.536 375.878 212.622 385.448 212.622 397.249C212.622 409.05 178.536 418.616 136.481 418.616Z" fill="#255AA3"/>
<path d="M155.754 370.87L101.918 352.862C98.8403 351.831 96.4341 349.179 95.3325 345.573L149.168 363.581C150.266 367.183 152.684 369.843 155.754 370.87Z" fill="#1E2D56"/>
<path d="M149.168 363.581L95.3325 345.573L117.618 341.479L171.461 359.491L149.168 363.581Z" fill="#223361"/>
<path d="M171.461 359.491C170.043 365.354 165.739 370.21 160.504 371.171C155.247 372.14 150.797 368.89 149.168 363.581L171.461 359.491Z" fill="#273A6F"/>
<path d="M160.043 346.726L106.208 328.718L141.461 322.241L195.301 340.253L160.043 346.726Z" fill="#223361"/>
<path d="M135.758 366.042L81.9263 348.034L70.9341 335.194L124.77 353.202L135.758 366.042Z" fill="#1E2D55"/>
<path d="M124.77 353.202L70.9341 335.194L106.208 328.718L160.043 346.726L124.77 353.202Z" fill="#223361"/>
<path d="M160.043 346.726L195.301 340.253L184.868 357.022L171.461 359.491L149.168 363.581L135.758 366.042L124.77 353.202L160.043 346.726Z" fill="#273A6F"/>
<path d="M196.063 323.335L142.227 305.327C142.364 305.299 142.504 305.296 142.641 305.303L196.473 323.311C196.34 323.299 196.204 323.311 196.063 323.335Z" fill="#21325E"/>
<path d="M196.473 323.312L142.641 305.304L142.954 305.362L196.786 323.37L196.473 323.312Z" fill="#21315D"/>
<path d="M196.786 323.37L142.954 305.362L142.997 305.378L196.829 323.382L196.786 323.37Z" fill="#20305B"/>
<path d="M194.993 323.53L141.149 305.522L142.227 305.327L196.063 323.335L194.993 323.53Z" fill="#223361"/>
<path d="M124.77 353.202L124.649 346.683L195.18 333.729L195.301 340.253L160.043 346.726L124.77 353.202Z" fill="#315091"/>
<path d="M124.649 346.683L70.8052 328.671L141.34 315.722L195.18 333.729L124.649 346.683Z" fill="#263E72"/>
<path d="M124.458 336.483L70.6216 318.476L141.149 305.522L194.993 323.53L124.458 336.483Z" fill="#223361"/>
<path d="M121.676 338.339C121.762 338.073 121.891 337.823 122.043 337.604L122.071 337.562C122.207 337.382 122.368 337.233 122.543 337.097L122.758 336.944C122.954 336.827 123.157 336.722 123.379 336.679L124.457 336.483L70.6216 318.476L69.5434 318.671L69.3598 318.714L69.0708 318.831L68.9184 318.937L68.6958 319.093L68.5356 319.21L68.2778 319.499L68.2387 319.554L68.1997 319.597L68.0864 319.776L67.938 320.065L67.8364 320.331L67.8286 320.362L67.8208 320.386C67.7817 320.511 67.7466 320.644 67.727 320.772C67.7036 320.925 67.6919 321.081 67.6997 321.241L67.8051 326.995C67.8247 327.901 68.3012 328.601 68.9692 328.823C86.9184 334.823 104.86 340.827 122.809 346.831C122.137 346.604 121.657 345.909 121.641 345.003L121.54 339.253C121.528 338.944 121.582 338.651 121.668 338.366L121.676 338.339Z" fill="#1C2A50"/>
<path d="M196.063 323.335C197.106 323.143 197.973 323.983 197.993 325.21L198.102 330.968C198.122 332.186 197.301 333.343 196.255 333.534L195.18 333.729L124.649 346.682L123.575 346.878C122.532 347.069 121.669 346.229 121.641 345.003L121.54 339.253C121.508 338.026 122.34 336.87 123.38 336.679L124.458 336.483L194.993 323.53L196.063 323.335Z" fill="#273A6F"/>
<path d="M124.77 353.202L70.9341 335.194L70.8052 328.671L124.649 346.683L124.77 353.202Z" fill="#1F335C"/>
<path d="M195.793 308.901L141.954 290.89C142.098 290.866 142.235 290.858 142.364 290.866L196.204 308.878C196.075 308.87 195.93 308.874 195.793 308.901Z" fill="#21325E"/>
<path d="M196.204 308.878L142.364 290.866L142.68 290.929L196.516 308.937L196.204 308.878Z" fill="#21315D"/>
<path d="M196.516 308.937L142.68 290.929L142.719 290.94L196.559 308.952L196.516 308.937Z" fill="#20305B"/>
<path d="M194.719 309.097L140.879 291.093L141.954 290.89L195.793 308.901L194.719 309.097Z" fill="#223361"/>
<path d="M124.458 336.483L124.375 332.226L194.911 319.272L194.993 323.53L124.458 336.483Z" fill="#315091"/>
<path d="M124.375 332.226L70.5396 314.214L141.071 301.269L194.911 319.272L124.375 332.226Z" fill="#263E72"/>
<path d="M124.458 336.483L70.6216 318.476L70.5396 314.214L124.375 332.226L124.458 336.483Z" fill="#1F335C"/>
<path d="M124.188 322.046L70.3481 304.038L140.879 291.093L194.719 309.097L124.188 322.046Z" fill="#223361"/>
<path d="M121.403 323.909C121.489 323.64 121.618 323.394 121.778 323.171L121.801 323.128C121.938 322.948 122.102 322.796 122.266 322.663L122.493 322.511C122.688 322.39 122.887 322.284 123.114 322.245L124.188 322.046L70.3481 304.038L69.27 304.237L69.0864 304.284L68.7974 304.397L68.6489 304.503L68.4341 304.655L68.2583 304.776L68.0005 305.062L67.9614 305.12L67.938 305.163L67.813 305.343L67.6646 305.628L67.5669 305.905L67.563 305.921L67.5435 305.948C67.5083 306.077 67.481 306.206 67.4575 306.339C67.4341 306.491 67.4224 306.651 67.4224 306.808L67.5278 312.538C67.5474 313.444 68.0278 314.144 68.6958 314.366C86.645 320.366 104.59 326.37 122.536 332.374C121.868 332.151 121.391 331.452 121.372 330.546L121.266 324.815C121.262 324.515 121.305 324.214 121.395 323.937L121.403 323.909Z" fill="#1C2A50"/>
<path d="M195.794 308.901C196.833 308.706 197.7 309.546 197.727 310.772L197.829 316.507C197.856 317.733 197.028 318.886 195.985 319.077L194.911 319.272L124.376 332.225L123.305 332.421C122.258 332.612 121.395 331.772 121.372 330.546L121.266 324.815C121.239 323.589 122.071 322.436 123.114 322.245L124.188 322.046L194.719 309.097L195.794 308.901Z" fill="#273A6F"/>
<path d="M195.516 294.155L141.684 276.143C141.817 276.12 141.958 276.116 142.086 276.124L195.926 294.132C195.797 294.116 195.661 294.128 195.516 294.155Z" fill="#21325E"/>
<path d="M195.926 294.132L142.086 276.124C142.204 276.132 142.301 276.151 142.403 276.183L196.243 294.19L195.926 294.132Z" fill="#21315D"/>
<path d="M196.243 294.19L142.403 276.183L142.446 276.194L196.286 294.202L196.243 294.19Z" fill="#20305B"/>
<path d="M194.442 294.351L140.598 276.339L141.684 276.144L195.516 294.155L194.442 294.351Z" fill="#223361"/>
<path d="M124.188 322.046L124.102 317.479L194.633 304.526L194.719 309.097L124.188 322.046Z" fill="#315091"/>
<path d="M124.102 317.479L70.2622 299.468L140.793 286.519L194.633 304.526L124.102 317.479Z" fill="#263E72"/>
<path d="M124.188 322.046L70.3481 304.038L70.2622 299.468L124.102 317.479L124.188 322.046Z" fill="#1F335C"/>
<path d="M123.915 307.3L70.0708 289.292L140.598 276.339L194.442 294.351L123.915 307.3Z" fill="#223361"/>
<path d="M121.133 309.159C121.219 308.894 121.34 308.644 121.497 308.425L121.528 308.382C121.657 308.202 121.825 308.054 121.997 307.913L122.211 307.761C122.403 307.644 122.606 307.538 122.833 307.499L123.915 307.3L70.0708 289.292L68.9927 289.487L68.8052 289.538L68.5239 289.651L68.3716 289.757L68.1567 289.909L67.9849 290.034L67.7271 290.315L67.6841 290.37L67.6606 290.413L67.5356 290.597L67.3911 290.882L67.2896 291.163L67.2778 291.175L67.27 291.202C67.231 291.331 67.2036 291.46 67.1802 291.593C67.1567 291.745 67.1489 291.905 67.1489 292.062L67.2622 297.792C67.2739 298.698 67.7505 299.397 68.4185 299.62C86.3638 305.62 104.309 311.624 122.254 317.628H122.258C121.59 317.401 121.114 316.706 121.094 315.8L120.989 310.073C120.981 309.769 121.028 309.468 121.122 309.183L121.133 309.159Z" fill="#1C2A50"/>
<path d="M195.516 294.155C196.559 293.96 197.426 294.803 197.442 296.03L197.555 301.764C197.579 302.983 196.75 304.139 195.711 304.331L194.633 304.526L124.102 317.479L123.024 317.675C121.985 317.866 121.122 317.026 121.094 315.8L120.989 310.073C120.965 308.846 121.79 307.69 122.833 307.499L123.915 307.3L194.442 294.35L195.516 294.155Z" fill="#273A6F"/>
<path d="M193.844 287.265L140.012 269.257C140.168 269.058 140.317 268.851 140.461 268.647L194.293 286.655C194.149 286.862 194.004 287.065 193.844 287.265Z" fill="#223866"/>
<path d="M187.622 291.683L133.79 273.679C134.434 273.483 135.036 273.237 135.606 272.956L189.446 290.96C188.875 291.245 188.27 291.487 187.622 291.683Z" fill="#253D6F"/>
<path d="M189.446 290.96L135.606 272.956C136.735 272.394 137.719 271.679 138.586 270.851L192.418 288.858C191.559 289.683 190.571 290.401 189.446 290.96Z" fill="#243B6C"/>
<path d="M192.418 288.858L138.586 270.851C139.102 270.354 139.575 269.819 140.012 269.257L193.844 287.265C193.415 287.827 192.938 288.362 192.418 288.858Z" fill="#233969"/>
<path d="M193.844 287.265L140.012 269.257C140.168 269.058 140.317 268.851 140.461 268.647L194.293 286.655C194.149 286.862 194.004 287.065 193.844 287.265Z" fill="#223866"/>
<path d="M159.106 296.921L105.274 278.913L133.79 273.679L187.622 291.683L159.106 296.921Z" fill="#263E72"/>
<path d="M127.137 301.741L73.3013 283.729L73.5317 283.804L127.372 301.812L127.137 301.741Z" fill="#223866"/>
<path d="M127.372 301.812L73.5317 283.804C74.0942 283.976 74.6997 284.085 75.3442 284.14L129.184 302.151C128.543 302.097 127.934 301.983 127.372 301.812Z" fill="#233969"/>
<path d="M129.184 302.151L75.3442 284.14C75.7935 284.175 76.2661 284.183 76.7544 284.147L130.594 302.155C130.106 302.187 129.633 302.183 129.184 302.151Z" fill="#243B6C"/>
<path d="M130.594 302.155L76.7544 284.147L105.274 278.913L159.106 296.921L130.594 302.155Z" fill="#263E72"/>
<path d="M187.622 291.683C190.571 290.78 192.723 288.901 194.293 286.655L194.442 294.351L123.915 307.3L123.766 299.593C125.407 301.261 127.625 302.339 130.594 302.155L159.106 296.921L187.622 291.683Z" fill="#D07625"/>
<path d="M123.915 307.3L70.0708 289.292L69.9302 281.585L123.766 299.593L123.915 307.3Z" fill="#D07625"/>
<path d="M186.087 26.5811L186.09 26.5889C186.352 26.6396 186.614 26.6982 186.872 26.7529C186.61 26.6982 186.348 26.6357 186.087 26.5811ZM182.071 25.8779L182.106 25.8818C182.797 25.9834 183.489 26.1123 184.172 26.2334L184.215 26.2373C183.505 26.1162 182.794 25.9834 182.071 25.8779ZM258.712 128.202C258.708 127.792 258.692 127.378 258.684 126.968C258.59 123.511 258.356 120.128 258.016 116.796C258.356 120.108 258.583 123.425 258.68 126.604C258.665 126.151 258.645 125.698 258.622 124.991C258.598 124.569 258.579 124.147 258.54 123.382C258.528 122.987 258.497 122.597 258.45 121.78C258.426 121.401 258.403 121.026 258.274 119.437C258.255 119.108 258.219 118.776 258.153 117.999C258.11 117.526 258.063 117.054 258.012 116.55C257.915 115.593 257.786 114.663 257.669 113.722L257.645 113.456V113.476C257.563 112.858 257.501 112.233 257.415 111.624C257.356 111.261 257.301 110.897 257.243 110.534C257.051 109.272 256.856 108.011 256.637 106.765C256.571 106.397 256.493 106.034 256.422 105.663C256.188 104.421 255.946 103.187 255.676 101.964C255.61 101.659 255.536 101.354 255.469 101.042C255.176 99.7646 254.872 98.4912 254.547 97.2334C254.485 96.999 254.415 96.7686 254.352 96.5342C253.997 95.2021 253.626 93.8857 253.235 92.5811C253.18 92.4248 253.133 92.2725 253.087 92.1123C252.661 90.7334 252.212 89.3701 251.747 88.0225L251.653 87.7725C251.153 86.3545 250.637 84.9482 250.09 83.5693L250.067 83.5029C241.633 62.2568 227.555 45.5693 209.962 35.542C209.465 35.2529 208.973 34.9795 208.473 34.7061C207.997 34.4482 207.528 34.1943 207.051 33.9521C206.372 33.5967 205.684 33.2607 204.993 32.9248C204.563 32.7139 204.133 32.5107 203.7 32.3115L203.844 32.3818C203.657 32.2959 203.473 32.21 203.286 32.1279C203.419 32.1904 203.563 32.249 203.7 32.3115C203.516 32.2295 203.333 32.1475 203.145 32.0654C202.594 31.8193 202.036 31.5693 201.473 31.3311C201.02 31.1357 200.559 30.9443 200.098 30.7568C199.938 30.6982 199.786 30.6318 199.63 30.5693C199.52 30.5264 199.399 30.4834 199.286 30.4404C198.825 30.2568 198.356 30.085 197.891 29.9131C197.329 29.7021 196.762 29.5068 196.192 29.3115L195.962 29.2334C195.692 29.1396 195.426 29.0498 195.161 28.9639C194.852 28.8623 194.544 28.7646 194.231 28.667C193.758 28.5186 193.278 28.374 192.805 28.2295C192.442 28.124 192.083 28.0225 191.727 27.9287C191.383 27.835 191.04 27.7412 190.692 27.6475L190.657 27.6357C190.079 27.4912 189.505 27.3428 188.926 27.2021H188.95C188.797 27.167 188.645 27.1396 188.497 27.1045L188.223 27.0459L188.497 27.1045C188.071 27.0029 187.649 26.9014 187.227 26.8076C187.008 26.7646 186.794 26.7178 186.571 26.6748L186.723 26.7061C186.59 26.6826 186.458 26.6553 186.329 26.6318L186.571 26.6748C186.13 26.5811 185.676 26.4912 185.223 26.4092C184.606 26.292 183.985 26.1826 183.356 26.0811C183.04 26.0303 182.731 25.9678 182.415 25.9209C182.626 25.9521 182.829 25.9951 183.036 26.0303C182.782 25.9873 182.536 25.9404 182.278 25.9014L182.415 25.9209C182.04 25.8623 181.657 25.8154 181.278 25.7607C180.477 25.6514 179.665 25.5537 178.856 25.46C178.637 25.4365 178.422 25.4053 178.2 25.3818C178.395 25.3975 178.583 25.4326 178.77 25.4521L178.649 25.4404C179.059 25.4834 179.469 25.5459 179.887 25.5967C180.165 25.6279 180.434 25.667 180.708 25.7061C179.977 25.6045 179.243 25.5029 178.501 25.4287L178.262 25.4053C176.829 25.2607 175.38 25.1592 173.919 25.0889C174.172 25.1045 174.434 25.1045 174.688 25.1162C174.399 25.1006 174.102 25.0928 173.809 25.0811L173.649 25.0732C172.895 25.0381 172.141 24.999 171.383 24.9834C171.106 24.9795 170.817 24.9756 170.34 24.9717C169.516 24.9717 168.684 24.9756 167.477 25.0068C167.247 25.0146 167.016 25.0225 166.34 25.0498C166.02 25.0615 165.704 25.0811 165.383 25.0928C165.153 25.1084 164.915 25.1162 164.157 25.1709C163.946 25.1826 163.735 25.1982 162.997 25.2568C162.747 25.2764 162.505 25.2998 161.797 25.3623C161.454 25.3936 161.102 25.4287 159.95 25.5615C161.43 25.3857 162.895 25.2646 164.356 25.1709C162.797 25.2686 161.215 25.4131 159.618 25.5967C159.36 25.6279 159.106 25.6631 156.442 26.0381C156.204 26.0732 155.962 26.1123 155.223 26.2334C154.829 26.2998 154.43 26.3662 154.04 26.4443C97.4615 36.8311 52.6139 99.2334 53.8639 165.819C54.6139 205.94 71.9576 238.394 97.7272 255.651C97.7428 255.655 98.0084 255.741 98.4576 255.913C101.165 257.671 103.962 259.261 106.833 260.69C112.512 265.147 118.79 273.124 119.044 286.772C119.087 287.573 119.79 302.827 130.594 302.155L187.622 291.683C198.364 288.401 198.512 272.991 198.524 272.179C198.266 258.53 204.2 248.312 209.676 241.808C212.477 239.335 215.18 236.733 217.797 233.999C218.231 233.671 218.532 233.468 218.247 233.522C243.462 206.905 259.465 168.331 258.712 128.202Z" fill="#EBB72E"/>
<path d="M178.079 25.3857L178.262 25.4053L178.079 25.3857Z" fill="#EBB72E"/>
<path d="M178.489 25.4248L178.5 25.4287L178.649 25.4404L178.489 25.4248Z" fill="#EBB72E"/>
<path d="M175.747 25.202C176.016 25.2215 176.294 25.2254 176.559 25.245C176.735 25.2606 176.903 25.2958 177.079 25.3075C176.637 25.2684 176.192 25.2333 175.747 25.202ZM135.11 9.19029C131.09 8.23326 126.969 7.5731 122.715 7.24107C122.415 7.21764 122.114 7.20982 121.809 7.19029L121.684 7.14732C121.286 7.11998 120.876 7.09654 120.469 7.07701L120.614 7.12389C115.934 6.87389 111.118 6.99498 106.133 7.55357H106.122C106.008 7.56529 105.895 7.5731 105.774 7.58873L105.711 7.59654C105.458 7.62779 105.044 7.68248 102.606 8.02623C102.368 8.06529 102.129 8.10435 101.383 8.22935C100.989 8.29576 100.594 8.36217 100.2 8.43639C98.4498 8.7567 96.7115 9.1317 94.9849 9.54967C94.4029 9.68639 93.8287 9.86607 93.2466 10.0184C92.1451 10.3075 91.0357 10.5887 89.9459 10.9208L89.8248 10.9559C89.6295 11.0145 89.4341 11.0848 89.2427 11.1473C87.8834 11.5692 86.5162 12.0223 85.1763 12.5028C84.6841 12.6825 84.2037 12.8661 83.7154 13.0497C82.6334 13.4598 81.5591 13.8817 80.4849 14.327C79.9927 14.5262 79.5005 14.7333 79.0201 14.9442C77.7779 15.4833 76.5474 16.0458 75.3248 16.6317C75.0591 16.7567 74.7974 16.8739 74.5279 17.0028L74.3638 17.0848C72.9263 17.7919 71.5162 18.5379 70.1138 19.3114C69.7076 19.5301 69.3131 19.7684 68.9029 19.995C67.8443 20.5965 66.7935 21.2098 65.7466 21.8465C65.2466 22.1551 64.7388 22.4754 64.2388 22.7879C63.2857 23.3934 62.3365 24.0145 61.3951 24.6512C60.9068 24.9754 60.4224 25.3036 59.938 25.6395C58.8951 26.3661 57.8638 27.1161 56.8365 27.8856C56.4927 28.1395 56.149 28.3817 55.813 28.6395C54.4615 29.6669 53.1255 30.7254 51.8091 31.8192C51.5123 32.0692 51.2193 32.327 50.9263 32.5809C49.9068 33.4403 48.8951 34.3153 47.9068 35.2098C47.4693 35.6044 47.0435 36.0028 46.6099 36.4051C46.1529 36.8309 45.6841 37.2411 45.231 37.6747C44.8716 38.0184 44.5279 38.3739 44.1724 38.7176C43.6216 39.2567 43.0826 39.7958 42.5357 40.3465C41.8013 41.0965 41.0591 41.8583 40.3326 42.6317C39.8052 43.1864 39.2779 43.745 38.7623 44.3114C38.0357 45.1161 37.317 45.9286 36.5982 46.7528C36.1138 47.3153 35.6138 47.8739 35.1412 48.4403C34.3912 49.327 33.6607 50.2411 32.9263 51.1512C32.5084 51.6747 32.0865 52.1903 31.6724 52.7254C31.5709 52.8544 31.4654 52.9754 31.3677 53.1044L31.3795 53.1083L31.3677 53.1044C31.192 53.3309 31.0318 53.577 30.8599 53.8036C29.4146 55.6942 28.0201 57.6317 26.6646 59.6044C26.356 60.0614 26.0357 60.5067 25.731 60.9676C24.2545 63.1669 22.8287 65.4169 21.4654 67.7059C21.3677 67.87 21.2584 68.0262 21.1646 68.1903C20.9732 68.5145 20.8013 68.8583 20.6099 69.1825C19.5279 71.0575 18.4771 72.9598 17.4654 74.8934C17.1959 75.4012 16.9302 75.8934 16.6724 76.3934C15.4966 78.6942 14.3834 81.0262 13.3287 83.3934C13.2545 83.5614 13.1646 83.7176 13.0943 83.8856C12.9498 84.2098 12.8287 84.5497 12.692 84.8739C11.7505 87.034 10.8599 89.2215 10.0084 91.4325C9.83258 91.9129 9.63727 92.3895 9.45758 92.8778C8.52398 95.4012 7.6568 97.9559 6.85602 100.538C6.78961 100.753 6.70367 100.96 6.64117 101.171C6.39117 101.983 6.17242 102.804 5.93805 103.62C5.73102 104.331 5.52008 105.042 5.32477 105.757C4.9693 107.042 4.6568 108.335 4.33648 109.628C4.19586 110.206 4.03961 110.78 3.9068 111.354C3.46539 113.237 3.06695 115.128 2.69977 117.026C2.64117 117.292 2.60602 117.565 2.55523 117.831C2.27789 119.331 2.01227 120.823 1.76617 122.331C1.75445 122.456 1.73883 122.589 1.71539 122.718C1.54352 123.909 1.39508 125.1 1.24273 126.296C1.12945 127.167 1.00055 128.042 0.898985 128.917C0.766173 130.186 0.660704 131.472 0.551329 132.745C0.484923 133.557 0.395079 134.358 0.336485 135.171C0.242735 136.612 0.188048 138.061 0.129454 139.511C0.113829 140.167 0.0630471 140.815 0.0435161 141.472C-0.00726589 143.581 -0.0150769 145.694 0.0278911 147.807C0.781798 187.936 18.1177 220.39 43.8912 237.643L43.9224 237.655C44.0084 237.682 44.2584 237.768 44.6216 237.909C47.3209 239.659 50.1177 241.253 52.9966 242.686C58.6763 247.143 64.9459 255.116 65.2037 268.761C65.2427 269.464 65.7857 281.245 73.1724 283.718C91.1216 289.722 109.063 295.722 127.012 301.725C119.626 299.253 119.079 287.475 119.044 286.772C118.79 273.124 112.512 265.147 106.833 260.69C103.961 259.261 101.165 257.671 98.4576 255.913C98.0904 255.776 97.8365 255.69 97.7584 255.667L48.8912 239.319L97.7271 255.651C71.9576 238.393 54.6138 205.94 53.8638 165.819C53.8248 163.702 53.8326 161.593 53.8834 159.487C53.899 158.788 53.9498 158.097 53.9771 157.401C54.0357 155.991 54.0826 154.585 54.1802 153.182C54.2349 152.366 54.3209 151.554 54.3951 150.737C54.4927 149.464 54.5982 148.19 54.7427 146.925C54.8326 146.061 54.9615 145.206 55.0709 144.347C55.2232 143.136 55.3716 141.925 55.5591 140.718C55.8052 139.116 56.0787 137.534 56.3795 135.948C56.4302 135.64 56.481 135.335 56.5357 135.022C56.899 133.132 57.3052 131.249 57.7427 129.378C57.8834 128.772 58.0435 128.179 58.192 127.581C58.4966 126.307 58.817 125.034 59.1568 123.772C59.3638 123.046 59.5787 122.319 59.7857 121.589C60.0787 120.577 60.3795 119.565 60.688 118.557C61.4888 115.972 62.3638 113.417 63.2935 110.893C63.4771 110.397 63.6724 109.909 63.8638 109.417C64.6959 107.222 65.5865 105.054 66.5162 102.905C66.7388 102.401 66.9459 101.893 67.1685 101.39C68.231 99.0223 69.3443 96.6903 70.5201 94.3934C70.774 93.8973 71.0357 93.4129 71.2935 92.9208C72.3052 90.9872 73.3599 89.0848 74.442 87.2059C74.731 86.7059 75.0123 86.202 75.3052 85.7059C76.6763 83.4169 78.0982 81.1708 79.567 78.9754C79.8755 78.5184 80.1959 78.0692 80.5045 77.6161C81.8638 75.6356 83.2623 73.6903 84.7154 71.7958C84.9771 71.4481 85.2232 71.1004 85.4849 70.7567C85.9302 70.1981 86.3795 69.6512 86.8248 69.0926C87.5357 68.202 88.2466 67.3192 88.9693 66.4559C89.4576 65.8856 89.9498 65.3192 90.4459 64.7567C91.1529 63.9364 91.8716 63.12 92.606 62.3153C93.1216 61.7528 93.6412 61.1981 94.1646 60.6434C94.8951 59.87 95.6295 59.1083 96.3755 58.3544C96.9224 57.8036 97.4654 57.2606 98.0201 56.7215C98.8209 55.9442 99.6255 55.1747 100.442 54.4208C100.872 54.0184 101.313 53.6083 101.747 53.2176C102.739 52.3192 103.751 51.4442 104.774 50.5848C105.059 50.3348 105.348 50.077 105.649 49.8309C106.969 48.7372 108.305 47.6708 109.661 46.6395C109.985 46.3934 110.321 46.1551 110.653 45.9051C111.692 45.1317 112.731 44.3739 113.786 43.6434C114.258 43.3114 114.739 42.9911 115.223 42.6669C116.172 42.0223 117.129 41.4012 118.09 40.7919C118.583 40.4754 119.079 40.1669 119.575 39.8661C120.629 39.2137 121.7 38.5965 122.778 37.9833C123.165 37.7645 123.547 37.534 123.938 37.3192C125.403 36.5145 126.883 35.7411 128.376 35.0067C128.626 34.8856 128.879 34.7762 129.122 34.659C130.356 34.0614 131.606 33.495 132.864 32.9442C133.344 32.7411 133.829 32.5379 134.309 32.3387C135.383 31.8895 136.465 31.4637 137.559 31.0536C138.04 30.8739 138.528 30.6864 139.008 30.5145C140.36 30.034 141.711 29.5809 143.071 29.1551C143.278 29.0926 143.473 29.0262 143.665 28.9637C144.809 28.6161 145.969 28.3192 147.129 28.0184C147.696 27.87 148.251 27.6942 148.821 27.5575C150.551 27.1356 152.286 26.7645 154.04 26.4442C154.43 26.3661 154.829 26.2997 155.223 26.2333C155.961 26.1122 156.204 26.0731 156.442 26.0379C157.106 25.9442 157.626 25.87 158.028 25.8153C159.235 25.6434 159.426 25.62 159.618 25.5965C161.012 25.4364 162.395 25.3114 163.758 25.2176C164.188 25.1825 164.606 25.1747 165.02 25.1512C165.961 25.0926 166.895 25.0458 167.817 25.0262C168.336 25.0145 168.848 25.0145 169.368 25.0145C170.184 25.0067 171.001 25.0028 171.805 25.0223C172.356 25.0301 172.895 25.0575 173.434 25.0809C174.821 25.1356 176.192 25.2372 177.547 25.3661C179.231 25.5184 180.903 25.7059 182.555 25.9559C182.821 25.9989 183.086 26.0497 183.356 26.0965C185.247 26.4051 187.106 26.7645 188.95 27.202L135.11 9.19029Z" fill="#D07625"/>
<path d="M178.489 25.4248L178.5 25.4287L178.649 25.4404L178.489 25.4248Z" fill="#EBB72E"/>
<path d="M178.079 25.3857L178.262 25.4053L178.079 25.3857Z" fill="#EBB72E"/>
<g filter="url(#filter1_d)">
<path d="M258.873 128.23C258.869 127.82 258.854 127.406 258.846 126.996C258.752 123.539 258.518 120.156 258.178 116.824C258.518 120.137 258.744 123.453 258.842 126.633C258.826 126.18 258.807 125.727 258.783 125.02C258.76 124.598 258.74 124.176 258.701 123.41C258.69 123.016 258.658 122.625 258.611 121.809C258.588 121.43 258.565 121.055 258.436 119.465C258.416 119.137 258.381 118.805 258.315 118.027C258.272 117.555 258.225 117.082 258.174 116.578C258.092 115.781 257.983 115.004 257.881 114.215V114.18V114.188C257.858 113.953 257.83 113.719 257.807 113.484V113.535C256.244 101.133 253.041 89.6406 248.451 79.3125C249.131 82.5273 248.541 86.8633 248.209 93.7422C246.537 129.352 237.709 158.043 216.791 186.895C211.217 194.57 202.229 202.59 196.365 209.965C190.506 217.375 191.733 215.734 187.529 226.09C184.846 232.734 175.221 238.402 164.94 240.293C157.787 241.605 150.311 241.09 144.615 237.809C138.803 234.457 140.963 215.906 136.057 210.641C130.99 205.23 124.084 199.605 118.975 194.27C109.17 184.027 107.346 175.23 106.322 158.828C104.436 128.098 113.818 96.1602 135.049 73.2539C153.318 53.5117 172.826 41.6523 194.135 37.7422C199.768 36.7109 205.522 36.2344 211.412 36.3086C204.498 32.1914 197.01 29.125 189.08 27.2305H189.111C188.959 27.1953 188.807 27.168 188.658 27.1328C187.779 26.9258 186.901 26.7383 186.014 26.5625H186.029C185.83 26.5234 185.635 26.4883 185.44 26.4492H185.451C183.217 26.0234 180.959 25.6953 178.662 25.457L178.424 25.4336C176.994 25.2891 175.549 25.1875 174.088 25.1172C174.338 25.1328 174.596 25.1328 174.85 25.1445C174.561 25.1289 174.268 25.1211 173.979 25.1094L173.811 25.1016C173.057 25.0664 172.303 25.0273 171.545 25.0117C171.268 25.0078 170.979 25.0039 170.502 25C169.678 25 168.846 25.0039 167.639 25.0352C167.408 25.043 167.178 25.0508 166.502 25.0781C166.182 25.0898 165.865 25.1094 165.545 25.1211C165.315 25.1367 165.076 25.1445 164.318 25.1992C164.108 25.2109 163.897 25.2266 163.158 25.2852C162.908 25.3047 162.666 25.3281 161.959 25.3906C161.615 25.4219 161.264 25.457 160.111 25.5898C161.592 25.4141 163.057 25.293 164.522 25.1992C162.959 25.2969 161.377 25.4414 159.779 25.625C159.522 25.6562 159.268 25.6914 156.604 26.0664C156.365 26.1016 156.123 26.1406 155.385 26.2617C154.99 26.3281 154.592 26.3945 154.201 26.4727C97.6232 36.8594 52.7755 99.2617 54.0255 165.848C54.7755 205.969 72.1193 238.422 97.8888 255.68C97.9044 255.684 98.17 255.77 98.6193 255.941C101.326 257.699 104.123 259.289 106.994 260.719C112.674 265.176 118.951 273.152 119.205 286.801C119.248 287.602 119.951 302.855 130.756 302.184L187.783 291.711C198.526 288.43 198.674 273.02 198.686 272.207C198.428 258.559 204.361 248.34 209.838 241.836C212.639 239.363 215.342 236.762 217.959 234.027C218.393 233.699 218.693 233.496 218.408 233.551C243.623 206.934 259.627 168.359 258.873 128.23Z" fill="#EAA22F"/>
</g>
<path d="M258.712 128.202C258.708 127.792 258.692 127.378 258.684 126.968C258.555 122.35 258.18 117.854 257.645 113.456C257.633 129.839 254.333 146.346 249.169 162.909C242.505 184.346 232.403 201.702 216.18 214.85C207.04 222.284 200.688 229.932 194.337 240.663C189.563 248.749 193.297 261.55 185.891 266.37C181.063 269.514 171.95 272.827 162.93 274.487C153.29 276.253 143.751 276.132 139.661 271.878C130.465 262.335 135.157 235.749 125.286 226.608C116.469 218.444 105.422 213.768 97.9186 203.721C79.4108 178.925 81.9108 137.409 94.3014 105.229C98.2858 94.909 103.235 84.7449 109.532 75.8777C135.278 40.4129 167.516 30.7488 181.696 28.1472C186.258 27.3074 188.817 27.2097 188.95 27.2019C179.778 25.0144 170.051 24.3855 159.618 25.5965C159.36 25.6277 159.106 25.6629 156.442 26.0379C156.204 26.073 155.962 26.1121 155.223 26.2332C154.829 26.2996 154.43 26.366 154.04 26.4441C97.4615 36.8308 52.6139 99.2332 53.8639 165.819C54.6139 205.94 71.9576 238.393 97.7272 255.651C97.7428 255.655 98.0084 255.741 98.4576 255.913C101.165 257.671 103.962 259.261 106.833 260.69C112.512 265.147 118.79 273.124 119.044 286.772C119.087 287.573 119.79 302.827 130.594 302.155L187.622 291.682C198.364 288.401 198.512 272.991 198.524 272.178C198.266 258.53 204.2 248.311 209.676 241.807C212.477 239.335 215.18 236.733 217.797 233.999C218.231 233.671 218.532 233.468 218.247 233.522C243.462 206.905 259.465 168.331 258.712 128.202Z" fill="#E98F30"/>
<path d="M239.122 107.96C238.547 99.7918 237.294 91.4558 234.145 84.2371C229.055 72.6004 214.766 45.8777 197.008 49.1355C194.051 49.6824 190.993 51.0574 187.872 53.4715C187.45 53.7801 187.051 54.1238 186.68 54.4597C173.696 66.2449 190.821 83.6277 191.731 95.1707C192.735 107.952 183.137 116.237 173.711 124.471C163.778 133.151 156.368 142.288 156.442 154.839C156.571 175.483 174.817 183.964 193.434 180.542C200.481 179.253 207.575 176.253 213.774 171.573C234.098 156.249 240.622 129.464 239.122 107.96Z" fill="#EDD55A"/>
<path d="M209.715 71.0143C209.622 66.2995 206.301 63.0729 202.317 63.8034C198.313 64.5377 195.153 68.9518 195.243 73.6666C195.329 78.362 198.626 81.5885 202.633 80.8541C206.622 80.1237 209.801 75.7057 209.715 71.0143Z" fill="white"/>
<path d="M230.098 97.8231C225.95 87.7176 219.083 81.6317 213.626 82.6356C212.751 82.7957 211.895 83.1512 211.098 83.6981C205.419 87.616 204.716 100.335 209.528 112.1C213.665 122.202 220.532 128.288 225.993 127.288C226.876 127.124 227.731 126.776 228.528 126.221C234.2 122.284 234.907 109.565 230.098 97.8231Z" fill="white"/>
</g>
<defs>
<filter id="filter0_d" x="0" y="0" width="278.899" height="431.616" filterUnits="userSpaceOnUse" color-interpolation-filters="sRGB">
<feFlood flood-opacity="0" result="BackgroundImageFix"/>
<feColorMatrix in="SourceAlpha" type="matrix" values="0 0 0 0 0 0 0 0 0 0 0 0 0 0 0 0 0 0 127 0" result="hardAlpha"/>
<feOffset dx="10" dy="3"/>
<feGaussianBlur stdDeviation="5"/>
<feComposite in2="hardAlpha" operator="out"/>
<feColorMatrix type="matrix" values="0 0 0 0 0 0 0 0 0 0 0 0 0 0 0 0 0 0 0.25 0"/>
<feBlend mode="normal" in2="BackgroundImageFix" result="effect1_dropShadow"/>
<feBlend mode="normal" in="SourceGraphic" in2="effect1_dropShadow" result="shape"/>
</filter>
<filter id="filter1_d" x="50" y="25" width="212.899" height="285.205" filterUnits="userSpaceOnUse" color-interpolation-filters="sRGB">
<feFlood flood-opacity="0" result="BackgroundImageFix"/>
<feColorMatrix in="SourceAlpha" type="matrix" values="0 0 0 0 0 0 0 0 0 0 0 0 0 0 0 0 0 0 127 0" result="hardAlpha"/>
<feOffset dy="4"/>
<feGaussianBlur stdDeviation="2"/>
<feComposite in2="hardAlpha" operator="out"/>
<feColorMatrix type="matrix" values="0 0 0 0 0 0 0 0 0 0 0 0 0 0 0 0 0 0 0.25 0"/>
<feBlend mode="normal" in2="BackgroundImageFix" result="effect1_dropShadow"/>
<feBlend mode="normal" in="SourceGraphic" in2="effect1_dropShadow" result="shape"/>
</filter>
</defs>
</svg>
