<svg width="163" height="336" viewBox="0 0 163 336" fill="none" xmlns="http://www.w3.org/2000/svg">
<path d="M154.924 12.8103H75.2001C68.8977 12.8103 62.8266 14.7248 59.2417 24.2137L7.96812 157.746C6.26564 164.964 11.5208 169.15 19.3812 169.15H48.2399L29.9077 323.774C28.8123 333.931 36.4863 338.762 43.4054 332.183L151.365 164.646C153.726 157.855 150.806 153.243 144.507 153.243H112.093L161.789 24.2137C164.147 17.4231 161.227 12.8103 154.924 12.8103Z" fill="#255AA3"/>
<path d="M32.1499 328.078C29.5255 328.078 27.0907 326.976 25.2918 324.972C22.8441 322.251 21.7744 318.178 22.2787 313.504L40.2383 162.031H14.5822C9.15998 162.031 4.78171 160.278 2.26011 157.091C0.779272 155.221 -0.743326 151.977 0.400228 147.13C0.429138 147.005 0.467685 146.883 0.512656 146.764L51.7863 13.228C56.2641 1.37162 64.5581 0 70.4044 0H150.129C153.948 0 157.061 1.42302 158.898 3.99923C160.922 6.84527 161.198 10.8156 159.682 15.1842L111.444 140.432H139.708C143.528 140.432 146.64 141.855 148.478 144.435C150.498 147.278 150.778 151.248 149.258 155.617C149.184 155.832 149.085 156.034 148.963 156.224L40.9996 323.761C40.8776 323.954 40.733 324.127 40.5692 324.284C37.9576 326.768 35.0474 328.078 32.1499 328.078ZM5.90278 148.617C5.45628 150.647 5.73574 152.311 6.7219 153.561C8.12243 155.331 10.9877 156.343 14.5822 156.343H43.4409C44.2536 156.343 45.031 156.693 45.5706 157.297C46.1103 157.907 46.364 158.716 46.2709 159.523L27.9387 314.147C27.6175 317.118 28.1957 319.688 29.5287 321.172C31.1959 323.025 33.8588 322.675 36.4061 320.378L143.984 153.442C144.774 151.001 144.723 148.983 143.833 147.737C142.888 146.407 141.067 146.131 139.708 146.131H107.297C106.359 146.131 105.479 145.668 104.949 144.894C104.415 144.12 104.3 143.137 104.637 142.26L154.334 13.2312C155.198 10.7417 155.182 8.60557 154.256 7.30462C153.309 5.97475 151.491 5.69529 150.129 5.69529H70.4044C65.374 5.69529 60.2826 6.8549 57.109 15.2581L5.90278 148.617Z" fill="#FFF500"/>
</svg>
