<svg width="185" height="118" viewBox="0 0 185 118" fill="none" xmlns="http://www.w3.org/2000/svg">
<path fill-rule="evenodd" clip-rule="evenodd" d="M123.513 37.4761V37.4823H126.662L128.381 37.4854L129.293 39.0239L151.141 75.7611L151.614 77.5457V110.922H151.627C151.627 112.567 150.77 114.158 149.671 115.332C148.459 116.628 146.681 117.6 145.382 117.6H39.238C37.7151 117.6 36.2482 116.681 35.1488 115.507C33.928 114.202 32.9937 112.255 32.9937 110.922H33.0061V77.5457L33.4826 75.7611L55.3238 39.0301L56.2456 37.4792H61.0916V37.4761H86.6295L101.675 37.4885V37.4761H123.513Z" fill="#CC3300"/>
<path fill-rule="evenodd" clip-rule="evenodd" d="M151.381 76.6675L151.614 77.5457V110.923H151.627C151.627 112.567 150.77 114.158 149.671 115.333C148.459 116.628 146.681 117.6 145.382 117.6H39.238C37.7151 117.6 36.2482 116.681 35.1488 115.507C33.928 114.202 32.9937 112.255 32.9937 110.923H33.0061V77.5457L33.2397 76.6675C33.5978 81.4854 37.3974 85.313 41.9942 85.313H142.629C147.223 85.313 151.026 81.4854 151.381 76.6675Z" fill="#AB2B00"/>
<path fill-rule="evenodd" clip-rule="evenodd" d="M40.4526 117.6H39.238C37.7151 117.6 36.2482 116.681 35.1488 115.507C33.928 114.202 32.9937 112.255 32.9937 110.923H33.0061V77.5457L33.2397 76.6675C33.5542 80.9373 36.5752 84.4254 40.4526 85.1666V117.6Z" fill="#E04816"/>
<path fill-rule="evenodd" clip-rule="evenodd" d="M144.167 117.6H145.382C146.902 117.6 148.375 116.681 149.468 115.507C150.692 114.202 151.626 112.255 151.626 110.923H151.614V77.5457L151.38 76.6675C151.063 80.9373 148.048 84.4254 144.167 85.1666V117.6Z" fill="#992903"/>
<path fill-rule="evenodd" clip-rule="evenodd" d="M62.4275 37.476V21.7858L65.7848 21.7796L82.5806 21.7484L85.9379 21.7422V37.4729L62.4275 37.476Z" fill="#992903"/>
<path fill-rule="evenodd" clip-rule="evenodd" d="M95.8198 37.476V21.7858L99.1771 21.7796L115.97 21.7484L119.33 21.7422V37.4729L95.8198 37.476Z" fill="#992903"/>
<path fill-rule="evenodd" clip-rule="evenodd" d="M128.259 37.4854C135.491 52.8299 147.288 71.9055 144.149 85.1727C144.152 85.1696 144.161 85.1696 144.168 85.1665C148.048 84.4253 151.063 80.9372 151.38 76.6674L151.141 75.7611L129.293 39.0239L128.381 37.4854H128.259Z" fill="#AB2B00"/>
<path fill-rule="evenodd" clip-rule="evenodd" d="M56.3764 37.4854C49.1448 52.8299 37.0859 71.9055 40.2252 85.1727C40.219 85.1696 40.2128 85.1696 40.2066 85.1665C36.3292 84.4253 33.3082 80.9372 32.9937 76.6674L33.2366 75.7611L56.255 37.4854H56.3764Z" fill="#D44111"/>
<path fill-rule="evenodd" clip-rule="evenodd" d="M156.94 8.85506C169.235 13.8599 179.373 21.4434 183.185 32.6676L183.194 32.6956H183.197L183.253 32.8607L184.125 35.4301L184.025 35.483C184.153 35.9657 184.268 36.4391 184.374 36.9001C184.679 38.2642 184.882 39.5161 184.972 40.6685C185.212 43.6427 183.876 47.5045 181.976 50.7902C179.97 54.2658 177.152 57.3273 174.726 58.2522C174.159 58.4983 173.465 58.6104 172.639 58.5855C172.104 58.5699 171.509 58.5107 170.852 58.408C166.021 57.6605 159.808 56.0971 153.888 54.6053C150.331 53.7115 146.886 52.8457 143.844 52.1948L143.847 52.1917C143.529 52.1231 143.23 52.0546 142.953 51.983C142.62 51.8989 142.336 51.8242 142.106 51.7525C141.819 51.6622 141.548 51.5688 141.299 51.4691C141.01 51.3539 140.748 51.2293 140.514 51.1079C138.917 50.2639 138.035 49.0773 137.531 47.6322C137.142 46.5173 137.073 45.4335 137.039 44.2593C136.976 42.1509 137.269 39.7777 137.565 37.3703C137.945 34.312 138.331 31.1883 137.858 29.4318C137.811 29.2542 137.758 29.1172 137.705 29.0238L137.677 28.974C136.438 27.8902 132.081 26.7908 126.901 25.8471C119.038 24.4114 96.8321 23.5456 92.718 23.53H91.9176C87.8035 23.5456 65.9624 24.4114 58.0986 25.8471C52.9193 26.7908 48.5654 27.8902 47.3228 28.974L47.2948 29.0238C47.2418 29.1172 47.192 29.2542 47.1422 29.4318C46.6688 31.1883 47.055 34.312 47.4349 37.3703C47.7339 39.7777 48.0267 42.1509 47.9612 44.2593C47.927 45.4335 47.8585 46.5173 47.4723 47.6322C46.9678 49.0773 46.0864 50.2639 44.4856 51.1079C44.252 51.2293 43.9935 51.3539 43.7008 51.4691C43.4547 51.5688 43.1838 51.6622 42.8973 51.7525C42.6637 51.8242 42.3834 51.8989 42.047 51.983C41.7699 52.0546 41.4709 52.1231 41.1532 52.1917L41.1563 52.1948C38.1136 52.8457 34.6691 53.7115 31.1125 54.6053C25.192 56.0971 18.9788 57.6605 14.1484 58.408C13.4944 58.5107 12.8996 58.5699 12.3639 58.5855C11.5355 58.6104 10.841 58.4983 10.2741 58.2522C7.84804 57.3273 5.02953 54.2658 3.02387 50.7902C1.12409 47.5045 -0.211975 43.6427 0.0278325 40.6685C0.118149 39.5161 0.31747 38.2642 0.625793 36.9001C0.731682 36.4391 0.846914 35.9657 0.974604 35.483L0.874944 35.4301L1.75008 32.8607L1.80303 32.6956H1.80614L1.81549 32.6676C5.6306 21.4434 15.7648 13.8599 28.0635 8.85506C44.8967 2.00654 78.5227 -0.0489499 92.2135 0.000880152H92.4221C106.113 -0.0489499 140.103 2.00654 156.94 8.85506Z" fill="#CC3300"/>
<path fill-rule="evenodd" clip-rule="evenodd" d="M47.4693 37.6445C30.4056 40.8181 15.3133 44.6861 2.19556 49.2456C2.45716 49.7719 2.73434 50.2889 3.02398 50.7903C5.02964 54.266 7.84816 57.3274 10.2743 58.2524C10.8411 58.4984 11.5356 58.6105 12.364 58.5856C12.8997 58.5701 13.4945 58.5109 14.1485 58.4081C18.9789 57.6607 25.1921 56.0972 31.1126 54.6054C34.6692 53.7116 38.1137 52.8458 41.1564 52.1949L41.1533 52.1918C41.471 52.1233 41.77 52.0548 42.0472 51.9831C42.3835 51.899 42.6638 51.8243 42.8974 51.7527C43.1839 51.6624 43.4549 51.5689 43.7009 51.4693C43.9936 51.354 44.2521 51.2295 44.4857 51.108C46.0865 50.264 46.9679 49.0774 47.4724 47.6323C47.8586 46.5174 47.9271 45.4336 47.9614 44.2595C48.0237 42.232 47.7527 39.9554 47.4693 37.6445Z" fill="#912400"/>
<path fill-rule="evenodd" clip-rule="evenodd" d="M47.4693 37.6445C31.6918 42.4656 16.4158 46.1343 2.19556 49.2456C2.45716 49.7719 2.73434 50.2889 3.02398 50.7903C5.02964 54.266 7.84816 57.3274 10.2743 58.2524C10.8411 58.4984 11.5356 58.6105 12.364 58.5856C12.8997 58.5701 13.4945 58.5109 14.1485 58.4081C18.9789 57.6607 25.1921 56.0972 31.1126 54.6054C34.6692 53.7116 38.1137 52.8458 41.1564 52.1949L41.1533 52.1918C41.471 52.1233 41.77 52.0548 42.0472 51.9831C42.3835 51.899 42.6638 51.8243 42.8974 51.7527C43.1839 51.6624 43.4549 51.5689 43.7009 51.4693C43.9936 51.354 44.2521 51.2295 44.4857 51.108C46.0865 50.264 46.9679 49.0774 47.4724 47.6323C47.8586 46.5174 47.9271 45.4336 47.9614 44.2595C48.0237 42.232 47.7527 39.9554 47.4693 37.6445Z" fill="#AB2B00"/>
<path fill-rule="evenodd" clip-rule="evenodd" d="M137.612 37.6445C154.672 40.8181 169.762 44.6861 182.886 49.2456C182.624 49.7719 182.344 50.2889 182.054 50.7903C180.045 54.266 177.23 57.3274 174.804 58.2524C174.234 58.4984 173.539 58.6105 172.714 58.5856C172.178 58.5701 171.583 58.5109 170.933 58.4081C166.099 57.6607 159.886 56.0972 153.962 54.6054C150.409 53.7116 146.961 52.8458 143.922 52.1949V52.1918C143.607 52.1233 143.308 52.0548 143.028 51.9831C142.694 51.899 142.411 51.8243 142.181 51.7527C141.894 51.6624 141.626 51.5689 141.377 51.4693C141.087 51.354 140.826 51.2295 140.589 51.108C138.995 50.264 138.11 49.0774 137.609 47.6323C137.219 46.5174 137.148 45.4336 137.113 44.2595C137.054 42.232 137.322 39.9554 137.612 37.6445Z" fill="#912400"/>
<path fill-rule="evenodd" clip-rule="evenodd" d="M137.612 37.6445C153.386 42.4656 168.662 46.1343 182.886 49.2456C182.624 49.7719 182.344 50.2889 182.054 50.7903C180.045 54.266 177.23 57.3274 174.804 58.2524C174.234 58.4984 173.539 58.6105 172.714 58.5856C172.178 58.5701 171.583 58.5109 170.933 58.4081C166.099 57.6607 159.886 56.0972 153.962 54.6054C150.409 53.7116 146.961 52.8458 143.922 52.1949V52.1918C143.607 52.1233 143.308 52.0548 143.028 51.9831C142.694 51.899 142.411 51.8243 142.181 51.7527C141.894 51.6624 141.626 51.5689 141.377 51.4693C141.087 51.354 140.826 51.2295 140.589 51.108C138.995 50.264 138.11 49.0774 137.609 47.6323C137.219 46.5174 137.148 45.4336 137.113 44.2595C137.054 42.232 137.322 39.9554 137.612 37.6445Z" fill="#AB2B00"/>
<path fill-rule="evenodd" clip-rule="evenodd" d="M47.3227 28.9738C48.5654 27.89 52.9193 26.7906 58.0985 25.8469C65.9623 24.4112 87.8034 23.5454 91.9175 23.5298H92.7179C96.832 23.5454 119.038 24.4112 126.901 25.8469C132.081 26.7906 136.438 27.89 137.677 28.9738L137.705 29.0236C137.746 29.0921 137.786 29.1887 137.823 29.3039C137.839 29.1326 137.842 28.9769 137.799 28.9022C135.198 24.8099 103.596 20.948 89.7686 21.2034C80.2075 21.3747 54.5138 23.7105 47.3757 28.6779C47.1514 28.8336 47.0269 29.0205 47.1919 29.2696C47.2262 29.1669 47.2604 29.0859 47.2947 29.0236L47.3227 28.9738Z" fill="#AB2B00"/>
<path fill-rule="evenodd" clip-rule="evenodd" d="M67.775 56.6388C71.2413 56.6356 75.2153 55.5114 78.6816 55.7076C79.8495 55.773 79.4259 56.9471 79.3761 57.3333C79.1207 59.2081 78.8684 61.0767 78.6099 62.9516C78.557 63.3378 77.8718 63.6492 77.0963 63.6492C73.3124 63.6492 69.1485 63.6492 65.3738 63.6492C64.4675 63.6492 64.1218 63.2381 64.2308 62.5156C64.2558 62.3568 64.3928 62.1699 64.4489 61.983C64.9378 60.3698 65.7787 58.9559 66.2708 57.3395C66.386 56.9564 67.0618 56.6388 67.775 56.6388Z" fill="#CCCCCC"/>
<path fill-rule="evenodd" clip-rule="evenodd" d="M71.1447 46.3118C74.1345 46.3087 77.5634 45.2965 80.5532 45.474C81.5623 45.5332 81.1979 46.589 81.1512 46.9347C80.9332 48.6227 80.7121 50.3106 80.4909 51.9955C80.4442 52.3412 79.8556 52.6215 79.1829 52.6215C75.919 52.6215 72.3282 52.6215 69.0674 52.6215C68.2888 52.6215 67.9898 52.2509 68.0864 51.6031C68.1082 51.4567 68.2234 51.2917 68.2732 51.1235C68.6968 49.6722 69.4193 48.3984 69.8429 46.944C69.9457 46.5983 70.528 46.3118 71.1447 46.3118Z" fill="#CCCCCC"/>
<path fill-rule="evenodd" clip-rule="evenodd" d="M71.8235 44.6923C74.7074 44.6798 77.5882 44.6705 80.4721 44.6612C81.0701 44.658 81.4968 44.9819 81.4283 45.3743C81.067 47.3021 80.6964 49.2206 80.3289 51.1391C80.2573 51.5315 79.6437 51.8616 78.9741 51.8616C75.7352 51.8709 72.49 51.8741 69.251 51.8865C68.5908 51.8896 68.161 51.5657 68.3105 51.1733C69.0361 49.2549 69.7618 47.3395 70.4843 45.4179C70.6307 45.0287 71.2287 44.6954 71.8235 44.6923Z" fill="#E6E6E6"/>
<path fill-rule="evenodd" clip-rule="evenodd" d="M67.9617 55.4896C71.3813 55.4833 74.7978 55.474 78.2236 55.4678C78.9306 55.4678 79.4445 55.7917 79.3728 56.1841C79.0116 58.1088 78.6472 60.0272 78.2828 61.9457C78.208 62.3412 77.5073 62.6682 76.7287 62.6682C72.9416 62.6713 69.167 62.6776 65.383 62.6807C64.6138 62.6807 64.0968 62.3599 64.2494 61.9613C64.9719 60.0459 65.6914 58.1306 66.4139 56.2121C66.5634 55.8166 67.2548 55.4896 67.9617 55.4896Z" fill="#EFEFEF"/>
<path fill-rule="evenodd" clip-rule="evenodd" d="M64.1 66.2812C68.0584 66.2812 72.0105 66.278 75.9782 66.2749C76.7942 66.2718 77.3953 66.6019 77.3237 66.9975C76.9624 68.9159 76.598 70.8344 76.2367 72.7559C76.1589 73.1484 75.3678 73.4691 74.4802 73.4691C70.1575 73.4691 65.8441 73.4691 61.5275 73.4691C60.6399 73.4691 60.0388 73.1484 60.1883 72.7559C60.9046 70.8406 61.6303 68.9253 62.3497 67.0037C62.4992 66.6082 63.284 66.2812 64.1 66.2812Z" fill="#FFFFFE"/>
<path fill-rule="evenodd" clip-rule="evenodd" d="M64.2837 67.0939C68.2389 67.0908 72.2783 66.0786 76.2398 66.2904C77.5727 66.362 77.5914 67.424 77.5322 67.832C77.2457 69.8283 76.953 71.8246 76.6571 73.8178C76.5979 74.2289 75.8162 74.559 74.9255 74.559C70.6058 74.559 65.8502 74.559 61.5368 74.559C60.2723 74.559 59.8394 73.8178 60.2007 72.7122C60.7613 70.9931 61.9977 69.5667 62.5583 67.8444C62.6922 67.4333 63.4646 67.0939 64.2837 67.0939Z" fill="#CCCCCC"/>
<path fill-rule="evenodd" clip-rule="evenodd" d="M120.417 67.0939C116.456 67.0908 112.419 66.0786 108.458 66.2904C107.122 66.362 107.106 67.424 107.166 67.832C107.455 69.8283 107.748 71.8246 108.041 73.8178C108.1 74.2289 108.882 74.559 109.772 74.559C114.092 74.559 118.848 74.559 123.164 74.559C124.425 74.559 124.777 73.8396 124.416 72.734C123.856 71.0149 122.7 69.5667 122.139 67.8444C122.006 67.4333 121.233 67.0939 120.417 67.0939Z" fill="#CCCCCC"/>
<path fill-rule="evenodd" clip-rule="evenodd" d="M116.823 56.6391C113.36 56.636 109.788 55.247 106.325 55.4463C105.154 55.5117 105.138 56.5114 105.191 56.8945C105.446 58.7694 105.733 61.0771 105.991 62.952C106.044 63.3382 106.73 63.6496 107.505 63.6496C111.286 63.6496 115.45 63.6496 119.228 63.6496C120.14 63.6496 120.508 63.1887 120.433 62.4443C120.417 62.2855 120.209 62.1765 120.153 61.9959C119.664 60.3795 118.823 58.9562 118.331 57.3399C118.215 56.9568 117.54 56.6391 116.823 56.6391Z" fill="#CCCCCC"/>
<path fill-rule="evenodd" clip-rule="evenodd" d="M113.463 46.3114C110.473 46.3083 107.396 45.0594 104.406 45.24C103.397 45.2992 103.382 46.1993 103.428 46.5418C103.643 48.2298 103.896 50.3102 104.117 51.9951C104.16 52.3408 104.752 52.6211 105.422 52.6211C108.685 52.6211 112.276 52.6211 115.537 52.6211C116.325 52.6211 116.643 52.2069 116.577 51.5342C116.562 51.394 116.384 51.2944 116.338 51.1324C115.914 49.6811 115.188 48.398 114.765 46.9436C114.665 46.5979 114.083 46.3114 113.463 46.3114Z" fill="#CCCCCC"/>
<path fill-rule="evenodd" clip-rule="evenodd" d="M87.1276 55.9286C90.5846 55.9255 94.0509 55.9255 97.5234 55.9224C98.2304 55.9224 98.847 56.2681 98.8782 56.6885C99.0183 58.5478 99.2052 60.2296 99.3391 62.0826C99.3578 62.2882 99.3329 62.6681 99.3329 62.883C99.3297 63.3066 98.7536 63.6491 97.9781 63.6491C94.1941 63.6491 90.4164 63.6491 86.6386 63.6491C85.8632 63.6491 85.2434 63.3066 85.2808 62.883C85.2932 62.6899 85.2621 62.2757 85.2777 62.0857C85.4271 60.2171 85.614 58.5727 85.7604 56.701C85.7915 56.2805 86.4113 55.9286 87.1276 55.9286Z" fill="#CCCCCC"/>
<path fill-rule="evenodd" clip-rule="evenodd" d="M87.841 45.614C90.8277 45.614 93.8175 45.614 96.8104 45.6109C97.4208 45.6077 97.9502 45.9223 97.9814 46.2991C98.0997 47.9716 98.2617 49.4852 98.38 51.1513C98.3894 51.3382 98.3738 51.6777 98.3738 51.8708C98.3676 52.2538 97.8724 52.5653 97.2028 52.5653C93.9358 52.5653 90.6813 52.5653 87.4205 52.5653C86.7478 52.5653 86.2153 52.2538 86.2433 51.8708C86.2589 51.6995 86.2308 51.3257 86.2433 51.1576C86.371 49.4758 86.536 47.9934 86.6606 46.3116C86.6886 45.9285 87.2243 45.614 87.841 45.614Z" fill="#CCCCCC"/>
<path fill-rule="evenodd" clip-rule="evenodd" d="M64.1 66.2812C68.0584 66.2812 72.0105 66.278 75.9782 66.2749C76.7942 66.2718 77.3953 66.6019 77.3237 66.9975C76.9624 68.9159 76.598 70.8344 76.2367 72.7559C76.1589 73.1484 75.3678 73.4691 74.4802 73.4691C70.1575 73.4691 65.8441 73.4691 61.5275 73.4691C60.6399 73.4691 60.0388 73.1484 60.1883 72.7559C60.9046 70.8406 61.6303 68.9253 62.3497 67.0037C62.4992 66.6082 63.284 66.2812 64.1 66.2812Z" fill="#FFFFFE"/>
<path fill-rule="evenodd" clip-rule="evenodd" d="M88.062 44.6332C90.9365 44.6208 93.8204 44.6083 96.7106 44.6021C97.2992 44.599 97.8193 44.926 97.8567 45.3215C98.0342 47.2431 98.1961 49.1709 98.3737 51.0924C98.411 51.4849 97.8878 51.815 97.2276 51.8181C93.9824 51.8274 90.7434 51.8337 87.5014 51.8399C86.838 51.843 86.3117 51.516 86.349 51.1236C86.5328 49.202 86.729 47.2804 86.9065 45.3589C86.9408 44.9633 87.464 44.6363 88.062 44.6332Z" fill="#E6E6E6"/>
<path fill-rule="evenodd" clip-rule="evenodd" d="M87.2242 55.4525C90.6376 55.4431 94.0603 55.4369 97.4892 55.4307C98.1869 55.4307 98.7973 55.7577 98.8347 56.1501C99.0122 58.0748 99.1835 60.0026 99.3548 61.9241C99.389 62.3166 98.7817 62.6436 98.0062 62.6467C94.2223 62.6498 90.4445 62.656 86.6668 62.656C85.8882 62.656 85.2746 62.3321 85.3151 61.9366C85.502 60.0181 85.6889 58.0966 85.8695 56.1719C85.9069 55.7764 86.5173 55.4525 87.2242 55.4525Z" fill="#EFEFEF"/>
<path fill-rule="evenodd" clip-rule="evenodd" d="M86.3865 66.2684C90.3386 66.2653 94.3001 66.2653 98.2647 66.2622C99.0745 66.2622 99.7783 66.6328 99.8126 67.0813C99.9745 69.0589 100.186 70.8497 100.342 72.8211C100.358 73.0422 100.314 73.4533 100.333 73.6713C100.37 74.1229 99.6724 74.4935 98.7817 74.4935C94.4621 74.4935 90.1455 74.4935 85.8321 74.4935C84.9445 74.4935 84.2376 74.1229 84.2749 73.6713C84.2936 73.4689 84.2562 73.0266 84.2749 72.8242C84.4462 70.8341 84.6642 69.0869 84.8262 67.0937C84.8635 66.6422 85.5736 66.2684 86.3865 66.2684Z" fill="#CCCCCC"/>
<path fill-rule="evenodd" clip-rule="evenodd" d="M86.3864 66.2653C90.3386 66.2653 94.3 66.2653 98.2646 66.2622C99.0744 66.2622 99.7782 66.5861 99.8125 66.9816C99.99 68.9063 100.161 70.831 100.333 72.7526C100.37 73.1481 99.6723 73.4689 98.7816 73.4689C94.462 73.4689 90.1455 73.4689 85.832 73.4689C84.9444 73.4689 84.2375 73.1481 84.2749 72.7526C84.4648 70.8341 84.6455 68.9125 84.8261 66.9879C84.8635 66.5954 85.5735 66.2684 86.3864 66.2653Z" fill="#FFFFFE"/>
<path fill-rule="evenodd" clip-rule="evenodd" d="M104.291 44.5707C107.172 44.5614 110.059 44.552 112.946 44.5396C113.538 44.5365 114.145 44.8604 114.294 45.2559C115.008 47.1868 115.711 49.1146 116.428 51.0424C116.574 51.4379 116.141 51.768 115.475 51.7712C112.226 51.7774 108.987 51.7836 105.749 51.793C105.082 51.793 104.472 51.4691 104.403 51.0767C104.048 49.1489 103.699 47.2242 103.347 45.2964C103.273 44.9008 103.702 44.5738 104.291 44.5707Z" fill="#E6E6E6"/>
<path fill-rule="evenodd" clip-rule="evenodd" d="M106.48 55.4149C109.903 55.4055 113.323 55.4024 116.745 55.3931C117.449 55.39 118.153 55.7139 118.299 56.1125C119.013 58.0403 119.723 59.9712 120.43 61.8959C120.576 62.2946 120.062 62.6216 119.284 62.6247C115.5 62.6247 111.722 62.6278 107.947 62.634C107.169 62.634 106.462 62.3101 106.39 61.9115C106.041 59.9899 105.683 58.0652 105.328 56.1343C105.253 55.7419 105.783 55.4149 106.48 55.4149Z" fill="#EFEFEF"/>
<path fill-rule="evenodd" clip-rule="evenodd" d="M108.67 66.2528C112.631 66.2497 116.587 66.2466 120.548 66.2466C121.364 66.2435 122.155 66.5674 122.305 66.966C123.018 68.8938 123.725 70.8216 124.435 72.7494C124.581 73.145 123.974 73.4689 123.09 73.4689C118.764 73.4689 114.45 73.4689 110.134 73.4689C109.249 73.4689 108.446 73.1481 108.374 72.7525C108.016 70.831 107.673 68.9032 107.315 66.9785C107.244 66.5798 107.86 66.2528 108.67 66.2528Z" fill="#FFFFFE"/>
<path fill-rule="evenodd" clip-rule="evenodd" d="M108.67 66.2528C112.631 66.2497 116.587 66.2466 120.548 66.2466C121.364 66.2435 122.155 66.5674 122.305 66.966C123.018 68.8938 123.725 70.8216 124.435 72.7494C124.581 73.145 123.974 73.4689 123.09 73.4689C118.764 73.4689 114.45 73.4689 110.134 73.4689C109.249 73.4689 108.446 73.1481 108.374 72.7525C108.016 70.831 107.673 68.9032 107.315 66.9785C107.244 66.5798 107.86 66.2528 108.67 66.2528Z" fill="#FFFFFE"/>
</svg>
