<svg width="138" height="144" viewBox="0 0 138 144" fill="none" xmlns="http://www.w3.org/2000/svg">
<path d="M112.022 43.0988C111.827 43.0988 111.63 43.0784 111.433 43.0349C87.8415 37.9313 49.4547 37.9327 25.8606 43.0349C24.3692 43.3571 22.8942 42.4095 22.5706 40.9154C22.2471 39.4213 23.196 37.9476 24.6901 37.6241C48.9286 32.3818 88.3663 32.3818 112.603 37.6241C114.097 37.9476 115.046 39.4213 114.723 40.9154C114.443 42.2124 113.295 43.0988 112.022 43.0988Z" fill="#3C3C3C"/>
<path d="M26.2359 112.671C26.2345 112.671 26.2345 112.671 26.2331 112.671C25.915 112.671 25.5942 112.668 25.276 112.663C24.9566 112.668 24.6371 112.671 24.3176 112.671C14.086 112.671 5.63401 109.99 1.70778 105.502C-1.03569 102.363 0.0668673 94.5449 1.28362 91.9442C2.81849 88.6678 7.14441 85.9596 11.7232 83.0938C14.9778 81.0573 18.6689 78.7475 19.9183 76.9135C19.8979 76.9407 19.9142 76.8578 19.8965 76.7463C19.7687 75.9456 19.9985 75.1299 20.5232 74.5127C21.0494 73.8968 21.8188 73.542 22.6305 73.542H27.9216C28.7319 73.542 29.5014 73.8968 30.0275 74.5127C30.5523 75.1285 30.782 75.9442 30.6556 76.745C30.6379 76.8605 30.6501 76.938 30.6569 76.9557C31.8832 78.7462 35.5729 81.0559 38.8289 83.0938C43.4077 85.9596 47.7322 88.6664 49.2671 91.9428C50.4852 94.5435 51.5905 102.362 48.8429 105.502C44.9181 109.99 36.4674 112.671 26.2359 112.671ZM25.276 107.126C25.2924 107.126 25.31 107.126 25.3277 107.126C25.6295 107.131 25.9327 107.134 26.2345 107.134C34.4758 107.134 41.8633 105.028 44.6475 101.89C45.3123 100.761 45.0717 96.0362 44.2546 94.292C43.4118 92.4934 39.2422 89.8832 35.891 87.7868C31.8139 85.2337 27.9624 82.8233 26.0591 80.0309C25.8552 79.7318 25.6825 79.4123 25.5425 79.0779H25.0082C24.8696 79.4123 24.6969 79.7318 24.4916 80.0322C22.5883 82.8233 18.7369 85.2337 14.6597 87.7868C11.3086 89.8832 7.13898 92.4934 6.29745 94.292C5.48039 96.0362 5.23976 100.762 5.90455 101.892C8.68881 105.028 16.0763 107.134 24.3176 107.134C24.6208 107.134 24.9226 107.131 25.2244 107.126C25.2421 107.126 25.2584 107.126 25.276 107.126Z" fill="#3C3C3C"/>
<path d="M45.0554 90.9004C40.6874 94.1496 32.9083 95.7049 25.2761 95.5635C17.6425 95.7049 9.86346 94.1496 5.49539 90.9004C4.72999 91.6413 4.13725 92.3809 3.79058 93.1177C2.70162 95.4452 2.15918 101.813 3.79058 103.68C7.55775 107.987 16.5155 110.057 25.2761 109.894C34.0381 110.057 42.9958 107.987 46.7602 103.68C48.393 101.813 47.8519 95.4452 46.7602 93.1177C46.4149 92.3809 45.8208 91.6413 45.0554 90.9004Z" fill="#FFDE59"/>
<path d="M26.2345 112.671C26.2345 112.671 26.2345 112.671 26.2331 112.671C25.915 112.671 25.5942 112.669 25.276 112.663C24.9566 112.669 24.6371 112.671 24.3176 112.671C14.086 112.671 5.63401 109.991 1.70778 105.503C-1.03569 102.364 0.0668672 94.5453 1.28362 91.9446C1.75808 90.9344 2.50445 89.9434 3.56893 88.9129C4.54369 87.968 6.05954 87.8688 7.14713 88.679C10.5676 91.224 17.1462 92.8038 24.3176 92.8038C24.6208 92.8038 24.9226 92.801 25.2244 92.7956C25.2597 92.7956 25.2924 92.7956 25.3277 92.7956C25.6309 92.801 25.9313 92.8038 26.2345 92.8038C33.4058 92.8038 39.9845 91.224 43.405 88.679C44.4926 87.8701 46.0057 87.9667 46.9818 88.9115C48.0476 89.9434 48.7954 90.9358 49.2671 91.9446C50.4866 94.5439 51.5905 102.362 48.8443 105.503C44.9181 109.991 36.4674 112.671 26.2345 112.671ZM25.276 107.126C25.2924 107.126 25.31 107.126 25.3277 107.126C25.6295 107.132 25.9327 107.134 26.2345 107.134C34.4758 107.134 41.8633 105.028 44.6475 101.891C45.2783 100.819 45.0948 96.5152 44.377 94.5861C39.8635 96.991 33.4358 98.3396 26.2345 98.3396C25.915 98.3396 25.5969 98.3369 25.2774 98.3315C24.9579 98.3369 24.6384 98.3396 24.319 98.3396C17.1177 98.3396 10.69 96.991 6.17645 94.5861C5.46 96.5125 5.2751 100.819 5.90591 101.891C8.69016 105.028 16.079 107.134 24.3203 107.134C24.6221 107.134 24.9239 107.132 25.2271 107.126C25.2421 107.126 25.2584 107.126 25.276 107.126Z" fill="#3C3C3C"/>
<path d="M112.976 95.8747C112.975 95.8747 112.976 95.8747 112.976 95.8747C112.656 95.8747 112.337 95.872 112.019 95.8665C111.699 95.872 111.381 95.8747 111.062 95.8747C100.829 95.8747 92.3755 93.1951 88.4492 88.706C85.7058 85.5683 86.8083 77.7485 88.0251 75.1491C89.5613 71.8714 93.8859 69.1633 98.4647 66.2974C101.719 64.2596 105.41 61.9511 106.66 60.1172C106.639 60.1484 106.656 60.0628 106.638 59.9499C106.51 59.1506 106.74 58.3349 107.265 57.7176C107.791 57.1004 108.56 56.7456 109.371 56.7456H114.663C115.473 56.7456 116.243 57.1004 116.769 57.7176C117.294 58.3335 117.523 59.1492 117.397 59.9486C117.378 60.0641 117.392 60.143 117.398 60.1607C118.625 61.9511 122.314 64.2609 125.57 66.2974C130.149 69.1633 134.474 71.8714 136.009 75.1478C137.227 77.7485 138.331 85.567 135.584 88.706C131.661 93.1938 123.208 95.8747 112.976 95.8747ZM112.019 90.3293C112.035 90.3293 112.053 90.3293 112.069 90.3307C112.371 90.3361 112.673 90.3388 112.976 90.3388C121.217 90.3388 128.606 88.2329 131.389 85.0939C132.054 83.9655 131.815 79.2412 130.996 77.497C130.155 75.6984 125.984 73.0881 122.634 70.9904C118.555 68.4387 114.705 66.0283 112.801 63.2359C112.597 62.9354 112.424 62.6159 112.285 62.2815H111.751C111.611 62.6173 111.438 62.9368 111.233 63.2372C109.331 66.0283 105.48 68.4387 101.403 70.9904C98.0514 73.0881 93.8818 75.6984 93.0389 77.497C92.2218 79.2399 91.9826 83.9655 92.646 85.0952C95.4303 88.2329 102.819 90.3388 111.062 90.3388C111.364 90.3388 111.665 90.3361 111.967 90.3307C111.985 90.3307 112.001 90.3293 112.019 90.3293Z" fill="#3C3C3C"/>
<path d="M131.798 74.1035C127.429 77.3541 119.652 78.908 112.019 78.7666C104.385 78.908 96.6061 77.3541 92.2381 74.1035C91.4727 74.8444 90.8799 75.584 90.5333 76.3222C89.4443 78.6497 88.9019 85.0162 90.5333 86.8828C94.3004 91.1897 103.258 93.2602 112.019 93.0971C120.779 93.2602 129.737 91.1897 133.503 86.8828C135.136 85.0162 134.593 78.6483 133.503 76.3222C133.158 75.584 132.564 74.8444 131.798 74.1035Z" fill="#FFDE59"/>
<path d="M112.976 95.8746C112.975 95.8746 112.976 95.8746 112.976 95.8746C112.656 95.8746 112.337 95.8718 112.019 95.8664C111.699 95.8718 111.381 95.8746 111.062 95.8746C100.829 95.8746 92.3755 93.195 88.4492 88.7059C85.7058 85.5682 86.8083 77.7484 88.0251 75.149C88.5009 74.1375 89.2473 73.1465 90.3104 72.116C91.2838 71.1711 92.7996 71.0719 93.8886 71.8821C97.3091 74.4271 103.889 76.0082 111.06 76.0082C111.362 76.0082 111.665 76.0055 111.966 75.9987C112.001 75.9987 112.034 75.9987 112.069 75.9987C112.371 76.0055 112.673 76.0082 112.975 76.0082C120.146 76.0082 126.726 74.4271 130.145 71.8821C131.234 71.0746 132.747 71.1711 133.722 72.1146C134.789 73.1465 135.537 74.1389 136.009 75.149C137.227 77.7484 138.331 85.5668 135.584 88.7059C131.661 93.1936 123.208 95.8746 112.976 95.8746ZM112.019 90.3292C112.035 90.3292 112.053 90.3292 112.069 90.3305C112.371 90.336 112.673 90.3387 112.976 90.3387C121.217 90.3387 128.606 88.2328 131.389 85.0937C132.021 84.0224 131.836 79.7196 131.118 77.7892C126.606 80.1955 120.177 81.5441 112.976 81.5441C112.656 81.5441 112.338 81.5414 112.019 81.5359C111.701 81.5414 111.381 81.5441 111.062 81.5441C103.859 81.5441 97.4314 80.1955 92.9165 77.7892C92.2015 79.7156 92.0166 84.0224 92.6474 85.0951C95.4303 88.2328 102.819 90.3387 111.062 90.3387C111.365 90.3387 111.665 90.336 111.969 90.3305C111.985 90.3305 112.001 90.3292 112.019 90.3292Z" fill="#3C3C3C"/>
<path d="M88.3065 128.369C88.3065 128.462 88.2738 128.553 88.2113 128.645C88.1474 128.736 88.0536 128.827 87.9272 128.917C87.8007 129.007 87.6444 129.097 87.4568 129.185C87.2692 129.272 87.0517 129.359 86.8042 129.445C86.5582 129.529 86.2822 129.612 85.9777 129.693C85.6731 129.775 85.3414 129.854 84.9825 129.93C84.6236 130.006 84.2389 130.08 83.8296 130.152C83.4204 130.222 82.9868 130.29 82.53 130.355C82.0732 130.421 81.596 130.482 81.0957 130.54C80.5968 130.599 80.0788 130.653 79.5418 130.705C79.0048 130.755 78.4515 130.803 77.8818 130.846C77.3122 130.89 76.729 130.929 76.1322 130.965C75.5367 131 74.929 131.03 74.3104 131.057C73.6932 131.084 73.0665 131.106 72.433 131.124C71.7994 131.141 71.1618 131.155 70.5188 131.164C69.8771 131.174 69.2327 131.178 68.587 131.178C67.9412 131.178 67.2968 131.174 66.6537 131.164C66.0107 131.155 65.3731 131.141 64.7396 131.124C64.106 131.106 63.4807 131.084 62.8621 131.057C62.2435 131.03 61.6372 131 61.0404 130.965C60.4436 130.929 59.8603 130.89 59.2907 130.846C58.7211 130.803 58.1678 130.755 57.6308 130.705C57.0938 130.653 56.5758 130.599 56.0769 130.54C55.5779 130.482 55.0994 130.421 54.6426 130.355C54.1858 130.29 53.7521 130.222 53.3429 130.152C52.9337 130.08 52.549 130.006 52.19 129.93C51.8311 129.854 51.4994 129.775 51.1949 129.693C50.8904 129.612 50.6157 129.529 50.3683 129.445C50.1209 129.359 49.9034 129.272 49.7158 129.185C49.5281 129.097 49.3718 129.007 49.2454 128.917C49.1203 128.827 49.0251 128.736 48.9612 128.645C48.8987 128.553 48.8674 128.462 48.8674 128.369C48.8674 128.277 48.8987 128.186 48.9612 128.095C49.0251 128.002 49.1203 127.911 49.2454 127.821C49.3718 127.732 49.5281 127.642 49.7158 127.554C49.9034 127.467 50.1209 127.38 50.3683 127.294C50.6157 127.21 50.8904 127.127 51.1949 127.045C51.4994 126.965 51.8311 126.886 52.19 126.809C52.549 126.732 52.9337 126.659 53.3429 126.588C53.7521 126.516 54.1858 126.448 54.6426 126.383C55.0994 126.318 55.5779 126.257 56.0769 126.198C56.5758 126.14 57.0938 126.085 57.6308 126.034C58.1678 125.983 58.7211 125.936 59.2907 125.892C59.8603 125.849 60.4436 125.809 61.0404 125.774C61.6372 125.74 62.2435 125.709 62.8621 125.682C63.4807 125.656 64.106 125.633 64.7396 125.615C65.3731 125.597 66.0107 125.584 66.6537 125.574C67.2968 125.566 67.9412 125.561 68.587 125.561C69.2327 125.561 69.8771 125.566 70.5188 125.574C71.1618 125.584 71.7994 125.597 72.433 125.615C73.0665 125.633 73.6932 125.656 74.3104 125.682C74.929 125.709 75.5367 125.74 76.1322 125.774C76.729 125.809 77.3122 125.849 77.8818 125.892C78.4515 125.936 79.0048 125.983 79.5418 126.034C80.0788 126.085 80.5968 126.14 81.0957 126.198C81.596 126.257 82.0732 126.318 82.53 126.383C82.9868 126.448 83.4204 126.516 83.8296 126.588C84.2389 126.659 84.6236 126.732 84.9825 126.809C85.3414 126.886 85.6731 126.965 85.9777 127.045C86.2822 127.127 86.5582 127.21 86.8042 127.294C87.0517 127.38 87.2692 127.467 87.4568 127.554C87.6444 127.642 87.8007 127.732 87.9272 127.821C88.0536 127.911 88.1474 128.002 88.2113 128.095C88.2738 128.186 88.3065 128.277 88.3065 128.369Z" fill="#FFBD59"/>
<path d="M68.5868 133.946C63.1923 133.946 58.1024 133.644 54.2523 133.096C50.1262 132.509 46.0994 131.659 46.0994 128.369C46.0994 125.079 50.1262 124.231 54.2523 123.642C58.1024 123.094 63.1923 122.792 68.5868 122.792C73.9813 122.792 79.0713 123.094 82.9214 123.642C87.0461 124.231 91.0743 125.079 91.0743 128.369C91.0743 131.659 87.0475 132.509 82.9214 133.096C79.0713 133.644 73.98 133.946 68.5868 133.946ZM65.2425 128.369C67.366 128.422 69.8077 128.422 71.9312 128.369C69.8077 128.316 67.3646 128.316 65.2425 128.369Z" fill="#3C3C3C"/>
<path d="M61.5474 133.584C61.5298 133.837 61.5121 134.116 61.4958 134.411H75.799C75.7814 134.117 75.7651 133.837 75.746 133.584C75.0078 123.064 74.9969 52.7865 75.746 42.1307C76.1063 36.9986 76.2857 22.9591 75.746 18.8411C74.5021 9.34505 71.5411 4.77985 68.6467 5.13876C65.751 4.77985 62.7927 9.34505 61.5474 18.8411C61.0063 22.9591 61.1885 36.9986 61.5474 42.1307C62.2965 52.7865 62.2856 123.064 61.5474 133.584Z" fill="#FFBD59"/>
<path d="M75.799 137.179H61.4958C60.7344 137.179 60.0071 136.865 59.4837 136.311C58.9603 135.758 58.6884 135.013 58.7319 134.253C58.7496 133.946 58.7686 133.654 58.7876 133.389C59.534 122.748 59.534 52.9593 58.7876 42.3253C58.4301 37.2353 58.2126 22.9851 58.8039 18.481C60.1675 8.07951 63.55 2.35059 68.33 2.35059C68.436 2.35059 68.542 2.35331 68.6467 2.3601C68.7528 2.35331 68.8588 2.35059 68.9635 2.35059C73.7448 2.35059 77.1286 8.07951 78.4908 18.4824C79.0822 22.9905 78.8647 37.238 78.5072 42.3253C77.7608 52.9552 77.7608 122.744 78.5072 133.391C78.5235 133.603 78.5384 133.851 78.5534 134.109L78.5615 134.242C78.6078 135.005 78.3386 135.751 77.8152 136.307C77.2918 136.863 76.5617 137.179 75.799 137.179ZM64.42 131.643H72.8748C72.2344 115.871 72.2711 52.1001 72.9849 41.9365C73.3506 36.7282 73.5015 23.0122 73.0012 19.2016C71.8565 10.4532 69.4611 8.01833 68.9281 7.88374C68.716 7.91093 68.5529 7.91365 68.3435 7.89054C67.7726 8.08087 65.4233 10.5647 64.2922 19.2016C63.7919 23.0095 63.9428 36.7269 64.3086 41.9378C65.0237 52.1055 65.0604 115.901 64.42 131.643Z" fill="#3C3C3C"/>
<path d="M88.4275 127.885C84.0594 130.118 76.2804 131.185 68.6482 131.088C61.0146 131.185 53.2355 130.118 48.8675 127.885C48.1021 128.394 47.5093 128.902 47.1626 129.408C46.0737 131.007 45.5313 135.38 47.1626 136.662C50.9298 139.62 59.8862 141.042 68.6482 140.93C77.4101 141.042 86.3679 139.619 90.1323 136.662C91.7651 135.38 91.2226 131.008 90.1323 129.408C89.787 128.902 89.1929 128.394 88.4275 127.885Z" fill="#FFBD59"/>
<path d="M69.6052 143.705C69.2857 143.705 68.9662 143.702 68.6481 143.698C68.3286 143.702 68.0105 143.705 67.691 143.705C63.9279 143.705 51.2017 143.354 45.4537 138.839C42.2453 136.318 43.2703 130.205 44.8759 127.849C45.4102 127.067 46.2137 126.326 47.3339 125.58C48.1673 125.025 49.2372 124.965 50.1263 125.419C53.6338 127.212 60.3633 128.325 67.691 128.325C67.9983 128.325 68.3055 128.323 68.6128 128.319C68.6359 128.319 68.6603 128.319 68.6834 128.319C68.9907 128.323 69.2979 128.325 69.6052 128.325C76.9315 128.325 83.6624 127.212 87.1685 125.419C88.059 124.965 89.1262 125.025 89.961 125.58C91.0825 126.326 91.8874 127.068 92.4189 127.85C94.0259 130.205 95.0523 136.318 91.8411 138.839C86.0945 143.352 73.3696 143.705 69.6052 143.705ZM68.6481 138.162C68.659 138.162 68.6712 138.162 68.6821 138.162C68.9893 138.166 69.2966 138.169 69.6052 138.169C77.9144 138.169 85.3631 136.737 88.2765 134.595C88.5403 133.903 88.3432 131.95 87.9394 131.132C83.4979 132.877 76.9642 133.862 69.6052 133.862C69.2857 133.862 68.9662 133.859 68.6481 133.855C68.3286 133.859 68.0091 133.862 67.691 133.862C60.3307 133.862 53.7969 132.877 49.3555 131.132C48.9517 131.948 48.7546 133.903 49.0183 134.595C51.9331 136.737 59.3831 138.167 67.691 138.167C67.9996 138.167 68.3055 138.166 68.6128 138.162C68.625 138.162 68.6359 138.162 68.6481 138.162Z" fill="#3C3C3C"/>
<path d="M112.019 61.0183C110.489 61.0183 109.251 59.7784 109.251 58.249V40.3295C109.251 38.8014 110.489 37.5615 112.019 37.5615C113.547 37.5615 114.785 38.8014 114.785 40.3295V58.249C114.785 59.7784 113.547 61.0183 112.019 61.0183Z" fill="#3C3C3C"/>
<path d="M25.2762 79.6625C23.7468 79.6625 22.5083 78.4226 22.5083 76.8945V40.3295C22.5083 38.8014 23.7468 37.5615 25.2762 37.5615C26.8043 37.5615 28.0442 38.8014 28.0442 40.3295V76.8945C28.0442 78.4226 26.8043 79.6625 25.2762 79.6625Z" fill="#3C3C3C"/>
<path d="M62.9546 19.4678H74.823V42.0599H62.9546V19.4678Z" fill="#FFBD59"/>
<path d="M74.8245 44.8296H62.9547C61.4266 44.8296 60.1868 43.5897 60.1868 42.0616V19.4695C60.1868 17.9401 61.4266 16.7002 62.9547 16.7002H74.8245C76.3526 16.7002 77.5924 17.9401 77.5924 19.4695V42.0616C77.5924 43.5897 76.3526 44.8296 74.8245 44.8296ZM65.7226 39.2937H72.0552V22.2374H65.7226V39.2937Z" fill="#3C3C3C"/>
<path d="M78.7874 26.3975V13.19C78.7874 7.43386 74.123 2.76807 68.3668 2.76807C62.6121 2.76807 57.9463 7.43386 57.9463 13.19V26.3975H78.7874Z" fill="#FFBD59"/>
<path d="M78.7873 29.1653H57.9462C56.4167 29.1653 55.1782 27.9255 55.1782 26.3974V13.1899C55.1782 5.91654 61.0948 0 68.3667 0C75.6387 0 81.5552 5.91654 81.5552 13.1899V26.3974C81.5552 27.9255 80.3153 29.1653 78.7873 29.1653ZM60.7141 23.6294H76.0193V13.1899C76.0193 8.96997 72.5866 5.53588 68.3667 5.53588C64.1468 5.53588 60.7141 8.96997 60.7141 13.1899V23.6294Z" fill="#3C3C3C"/>
<path d="M67.8745 7.15332C67.1172 7.15332 66.3926 7.28791 65.7156 7.52446C68.2714 8.41765 70.1081 10.8457 70.1081 13.7061V22.0113H74.4272V13.7061C74.4272 10.0871 71.4948 7.15332 67.8745 7.15332Z" fill="#FFDE59"/>
<path d="M68.5217 30.7656H71.9069V37.8282H68.5217V30.7656Z" fill="#FFDE59"/>
<path d="M71.6485 47.6914H68.3667V126.529H71.7763C71.7668 126.27 71.76 126.024 71.7491 125.803C71.4256 117.517 71.3875 65.1596 71.6485 47.6914Z" fill="#FFDE59"/>
</svg>
