<svg width="242" height="231" viewBox="0 0 242 231" fill="none" xmlns="http://www.w3.org/2000/svg">
<path fill-rule="evenodd" clip-rule="evenodd" d="M217.335 22.8225C206.402 21.9152 171.131 18.1408 162.318 24.2191C158.042 27.1694 152.403 39.8846 149.765 44.8756C142.932 57.8055 136.118 70.7378 129.283 83.6677C126.432 89.0581 128.495 95.7389 133.898 98.5876C139.292 101.439 145.977 99.3771 148.828 93.9775C157.783 77.0308 166.718 60.0679 175.688 43.1281C186.062 42.3409 206.924 44.1161 215.429 44.8248C221.505 45.3558 226.861 40.8519 227.386 34.7805C227.915 28.7092 223.41 23.3534 217.335 22.8317V22.8225Z" fill="#474443" stroke="#474443" stroke-width="0.341011" stroke-miterlimit="22.926"/>
<path fill-rule="evenodd" clip-rule="evenodd" d="M208.4 28.222L208.464 38.1463C208.564 53.0176 220.823 65.0957 235.697 64.9942C238.991 64.9734 241.671 62.2609 241.65 58.9597L241.299 6.95144C241.278 3.65721 238.564 0.979343 235.26 1.00012C220.379 1.10169 208.293 13.3506 208.393 28.2151L208.4 28.222Z" fill="#255AA3"/>
<path d="M208.4 28.222L208.464 38.1463C208.564 53.0176 220.823 65.0957 235.697 64.9942C238.991 64.9734 241.671 62.2609 241.65 58.9597L241.299 6.95144C241.278 3.65721 238.564 0.979344 235.26 1.00012C220.379 1.10169 208.293 13.3506 208.393 28.2151L208.4 28.222Z" stroke="#474443" stroke-width="0.341011" stroke-miterlimit="22.926"/>
<path fill-rule="evenodd" clip-rule="evenodd" d="M153.099 92.3084L128.252 79.2007C91.0105 59.5461 44.4572 73.9166 24.7899 111.132C20.4356 119.38 23.6164 129.697 31.877 134.051L162.119 202.784C170.373 207.138 180.696 203.959 185.05 195.704C204.718 158.486 190.338 111.963 153.099 92.3084Z" fill="#DCDDDD" stroke="#474443" stroke-width="0.341011" stroke-miterlimit="22.926"/>
<path fill-rule="evenodd" clip-rule="evenodd" d="M132.034 84.4986L123.574 80.0293C89.0839 61.8291 45.9609 75.1399 27.742 109.608C23.1566 118.286 26.5107 129.14 35.194 133.723L137.494 187.707C146.178 192.29 157.039 188.938 161.625 180.26C179.837 145.794 166.517 102.699 132.027 84.4917L132.034 84.4986Z" fill="#EDEDED"/>
<path d="M33.8058 116.582L174.946 191.066C186.649 197.241 191.858 210.345 186.582 220.331C181.304 230.315 167.538 233.404 155.836 227.229L14.6952 152.745C2.99279 146.57 -2.21624 133.467 3.05978 123.48C8.33812 113.494 22.1011 110.405 33.8058 116.582Z" fill="#255AA3" stroke="#474443" stroke-width="0.152017" stroke-miterlimit="22.926"/>
<path d="M32.0133 116.977L156.753 182.806C167.097 188.266 171.456 200.307 166.49 209.705C161.523 219.103 149.114 222.298 138.772 216.838L14.03 151.009C3.68814 145.552 -0.670824 133.508 4.29336 124.11C9.25984 114.713 21.6714 111.52 32.0133 116.977Z" fill="#255AA3"/>
<path fill-rule="evenodd" clip-rule="evenodd" d="M210.472 29.3116L210.52 36.992C210.599 48.5068 220.086 57.8562 231.606 57.7777C234.156 57.7639 236.233 55.6585 236.219 53.1099L235.946 12.8497C235.932 10.3011 233.826 8.22572 231.275 8.23957C219.756 8.31806 210.4 17.7968 210.479 29.3116H210.472Z" fill="#255AA3"/>
<path d="M6.72126 126.504C7.90398 128.614 12.3992 128.349 16.7605 125.911C21.1218 123.471 23.6997 119.782 22.517 117.672C21.3343 115.56 16.8414 115.825 12.4778 118.263C8.1165 120.703 5.53854 124.392 6.72126 126.504Z" fill="#FEFEFE"/>
<path d="M81.3153 79.1454C81.2391 82.2088 86.3095 84.822 92.6412 84.979C98.9729 85.136 104.166 82.779 104.242 79.7133C104.318 76.6476 99.2478 74.0367 92.9161 73.8797C86.5844 73.7227 81.3915 76.0797 81.3153 79.1454Z" fill="#FEFEFE"/>
<path d="M106.557 77.1784C106.146 78.6558 108.285 80.5396 111.336 81.3868C114.388 82.2363 117.194 81.7238 117.605 80.2487C118.017 78.7713 115.875 76.8852 112.824 76.038C109.772 75.1908 106.968 75.701 106.557 77.1784Z" fill="#FEFEFE"/>
<path d="M162.916 29.3138C163.279 30.8028 166.067 31.403 169.144 30.6528C172.221 29.9048 174.42 28.0903 174.057 26.599C173.692 25.11 170.904 24.5098 167.827 25.2601C164.752 26.0103 162.551 27.8248 162.916 29.3138Z" fill="#FEFEFE"/>
<path d="M216.252 16.8318C217.203 18.4016 220.393 17.8383 223.376 15.576C226.355 13.3136 228 10.2087 227.046 8.63889C226.094 7.0691 222.904 7.63238 219.924 9.89472C216.942 12.1571 215.297 15.2643 216.252 16.8318Z" fill="#FEFEFE"/>
</svg>
