<svg width="242" height="231" viewBox="0 0 242 231" fill="none" xmlns="http://www.w3.org/2000/svg">
<path fill-rule="evenodd" clip-rule="evenodd" d="M25.3152 22.8222C36.2484 21.915 71.5197 18.1406 80.3323 24.2189C84.6081 27.1691 90.2468 39.8843 92.8848 44.8752C99.7178 57.805 106.532 70.7372 113.367 83.667C116.218 89.0573 114.155 95.7381 108.752 98.5868C103.358 101.438 96.6732 99.3763 93.8227 93.9767C84.8668 77.0301 75.9318 60.0673 66.9621 43.1277C56.5879 42.3405 35.7263 44.1157 27.2209 44.8244C21.1457 45.3554 15.7888 40.8515 15.2644 34.7802C14.7354 28.7089 19.2399 23.3532 25.3152 22.8315V22.8222Z" fill="#474443" stroke="#474443" stroke-width="0.341011" stroke-miterlimit="22.926"/>
<path fill-rule="evenodd" clip-rule="evenodd" d="M34.2502 28.2218L34.1855 38.146C34.0861 53.0172 21.827 65.0952 6.95297 64.9937C3.65892 64.9729 0.97933 62.2604 1.00012 58.9593L1.35124 6.9514C1.37203 3.65719 4.08627 0.979343 7.38956 1.00012C22.2705 1.10169 34.3564 13.3505 34.2571 28.2149L34.2502 28.2218Z" fill="#255AA3"/>
<path d="M34.25 28.2218L34.1854 38.146C34.086 53.0172 21.8269 65.0952 6.95285 64.9937C3.6588 64.9729 0.979224 62.2604 1.00001 58.9593L1.35114 6.9514C1.37193 3.65719 4.08615 0.979344 7.38944 1.00012C22.2704 1.10169 34.3563 13.3505 34.257 28.2149L34.25 28.2218Z" stroke="#474443" stroke-width="0.341011" stroke-miterlimit="22.926"/>
<path fill-rule="evenodd" clip-rule="evenodd" d="M89.5513 92.3078L114.398 79.2002C151.639 59.5457 198.192 73.9161 217.86 111.131C222.214 119.379 219.033 129.696 210.773 134.05L80.5307 202.783C72.2771 207.136 61.9538 203.958 57.5971 195.703C37.9322 158.485 52.3119 111.962 89.5513 92.3078Z" fill="#DCDDDD" stroke="#474443" stroke-width="0.341011" stroke-miterlimit="22.926"/>
<path fill-rule="evenodd" clip-rule="evenodd" d="M110.616 84.498L119.075 80.0288C153.566 61.8287 196.689 75.1394 214.908 109.607C219.493 118.285 216.139 129.14 207.456 133.722L105.155 187.706C96.472 192.288 85.6104 188.936 81.0251 180.259C62.8131 145.793 76.1325 102.698 110.623 84.4911L110.616 84.498Z" fill="#EDEDED"/>
<path d="M208.844 116.581L67.7034 191.065C56.0009 197.24 50.7919 210.343 56.0679 220.329C61.3462 230.313 75.1115 233.402 86.8139 227.227L227.954 152.744C239.657 146.569 244.866 133.466 239.59 123.479C234.312 113.493 220.546 110.404 208.844 116.581Z" fill="#255AA3" stroke="#474443" stroke-width="0.152017" stroke-miterlimit="22.926"/>
<path d="M210.636 116.976L85.8968 182.805C75.5527 188.264 71.1937 200.306 76.1602 209.703C81.1267 219.101 93.536 222.296 103.878 216.837L228.62 151.008C238.962 145.551 243.32 133.507 238.356 124.109C233.39 114.712 220.978 111.519 210.636 116.976Z" fill="#255AA3"/>
<path fill-rule="evenodd" clip-rule="evenodd" d="M32.1781 29.3114L32.1296 36.9918C32.0511 48.5065 22.564 57.8559 11.044 57.7774C8.4938 57.7635 6.41712 55.6582 6.43098 53.1096L6.70356 12.8496C6.71742 10.301 8.82413 8.22572 11.3744 8.23957C22.8943 8.31806 32.2498 17.7967 32.1712 29.3114H32.1781Z" fill="#255AA3"/>
<path d="M235.929 126.503C234.746 128.613 230.251 128.348 225.889 125.91C221.528 123.47 218.95 119.781 220.133 117.671C221.316 115.559 225.809 115.824 230.172 118.262C234.533 120.702 237.111 124.391 235.929 126.503Z" fill="#FEFEFE"/>
<path d="M161.334 79.1446C161.411 82.208 156.34 84.8212 150.008 84.9782C143.677 85.1352 138.484 82.7782 138.408 79.7125C138.331 76.6469 143.402 74.036 149.734 73.879C156.065 73.722 161.258 76.079 161.334 79.1446Z" fill="#FEFEFE"/>
<path d="M136.093 77.1779C136.504 78.6553 134.365 80.539 131.314 81.3863C128.262 82.2358 125.456 81.7233 125.044 80.2482C124.633 78.7707 126.775 76.8847 129.826 76.0375C132.878 75.1903 135.682 75.7005 136.093 77.1779Z" fill="#FEFEFE"/>
<path d="M79.7339 29.3138C79.3712 30.8027 76.5831 31.403 73.5062 30.6527C70.4293 29.9047 68.2302 28.0903 68.5928 26.599C68.9578 25.11 71.746 24.5098 74.8229 25.2601C77.8975 26.0103 80.0989 27.8248 79.7339 29.3138Z" fill="#FEFEFE"/>
<path d="M26.3984 16.8317C25.4444 18.4014 22.2566 17.8382 19.2744 15.5759C16.2945 13.3135 14.6498 10.2086 15.6038 8.63888C16.5555 7.06911 19.7456 7.63238 22.7255 9.89469C25.7077 12.157 27.3525 15.2642 26.3984 16.8317Z" fill="#FEFEFE"/>
</svg>
