<svg width="188" height="146" viewBox="0 0 188 146" fill="none" xmlns="http://www.w3.org/2000/svg">
<path d="M175.154 52.8511H157.968H165.747H105.767C99.1171 52.8529 93.7239 58.2478 93.7239 64.9035V115.87C93.7239 115.87 107.857 141.762 139.393 145.037C147.064 145.834 170.248 145.037 170.248 145.037H175.154C181.804 145.037 187.195 139.64 187.195 132.983V64.9035C187.195 58.2478 181.804 52.8529 175.154 52.8511Z" fill="#F9B57C"/>
<path d="M106.605 64.7983H93.8733H99.6399H44.3298C39.4025 64.7983 35.4087 68.7957 35.4087 73.7265V124.159C35.4087 129.09 39.4025 133.087 44.3298 133.087H106.607C111.534 133.087 115.526 129.09 115.526 124.159V73.7265C115.526 68.7957 111.532 64.7983 106.605 64.7983Z" fill="#F9B57C"/>
<path d="M76.1343 57.4917H60.1716H67.3999H11.1883C5.00912 57.4935 0 62.5044 0 68.6871V131.93C0 138.112 5.00734 143.127 11.1883 143.127H76.1343C82.317 143.127 87.3208 138.112 87.3208 131.93V68.6871C87.3208 62.5044 82.317 57.4935 76.1343 57.4917Z" fill="#255AA3"/>
<path d="M124.213 72.7005C121.835 78.6609 113.222 80.8178 104.973 77.5229C96.722 74.2261 91.9618 66.724 94.3375 60.7636L116.037 6.36393C118.412 0.405267 127.026 -1.75344 135.276 1.5433C143.525 4.84003 124.213 72.7005 124.213 72.7005Z" fill="#F9B57C"/>
<path d="M70.7411 118.95C70.7411 119.416 70.6966 119.877 70.6059 120.332C70.5152 120.787 70.3801 121.23 70.2023 121.66C70.0245 122.089 69.8075 122.498 69.5497 122.884C69.2919 123.27 68.9985 123.627 68.6695 123.956C68.3405 124.285 67.9831 124.578 67.5973 124.836C67.2114 125.096 66.8042 125.313 66.3757 125.491C65.9453 125.668 65.5044 125.804 65.0474 125.894C64.5921 125.985 64.1334 126.029 63.6675 126.029C63.2034 126.029 62.7446 125.985 62.2876 125.894C61.8324 125.804 61.3914 125.668 60.9611 125.491C60.5326 125.313 60.1254 125.096 59.7395 124.836C59.3519 124.578 58.9962 124.285 58.6673 123.956C58.3383 123.627 58.0449 123.27 57.7871 122.884C57.5292 122.498 57.3123 122.089 57.1345 121.66C56.9567 121.23 56.8215 120.787 56.7308 120.332C56.6402 119.877 56.5957 119.416 56.5957 118.95C56.5957 118.486 56.6402 118.026 56.7308 117.571C56.8215 117.114 56.9567 116.671 57.1345 116.242C57.3123 115.812 57.5292 115.405 57.7871 115.019C58.0449 114.631 58.3383 114.274 58.6673 113.945C58.9962 113.616 59.3519 113.323 59.7395 113.065C60.1254 112.807 60.5326 112.588 60.9611 112.41C61.3914 112.233 61.8324 112.099 62.2876 112.009C62.7446 111.918 63.2034 111.872 63.6675 111.872C64.1334 111.872 64.5921 111.918 65.0474 112.009C65.5044 112.099 65.9453 112.233 66.3757 112.41C66.8042 112.588 67.2114 112.807 67.5973 113.065C67.9831 113.323 68.3405 113.616 68.6695 113.945C68.9985 114.274 69.2919 114.631 69.5497 115.019C69.8075 115.405 70.0245 115.812 70.2023 116.242C70.3801 116.671 70.5152 117.114 70.6059 117.571C70.6966 118.026 70.7411 118.486 70.7411 118.95Z" fill="#FDC400"/>
<path d="M7.9502 66.1636H79.3688V72.6432H7.9502V66.1636Z" fill="white"/>
</svg>
